<?xml version="1.0" ?><svg viewBox="0 0 1792 1792" xmlns="http://www.w3.org/2000/svg" xmlns:xlink="http://www.w3.org/1999/xlink"><style>:root>svg{display:none}:root>svg:target{display:block}</style><svg viewBox="0 0 1792 1792" id="angle-down" xmlns="http://www.w3.org/2000/svg"><path d="M1395 736q0 13-10 23l-466 466q-10 10-23 10t-23-10L407 759q-10-10-10-23t10-23l50-50q10-10 23-10t23 10l393 393 393-393q10-10 23-10t23 10l50 50q10 10 10 23z" fill="#fff"/></svg><svg fill="none" viewBox="0 0 18 18" id="arrow" xmlns="http://www.w3.org/2000/svg"><g clip-path="url(#abclip0_50_1972)"><path d="M10.55 2.75l-.647.732 5.69 5.029H.666v.976h14.925l-5.689 5.03.647.73 6.783-5.995v-.506L10.55 2.75z" fill="#fff"/></g><defs><clipPath id="abclip0_50_1972"><path fill="#fff" transform="translate(.667 .666)" d="M0 0h16.667v16.667H0z"/></clipPath></defs></svg><svg fill="none" viewBox="0 0 1097 721" id="assets" xmlns="http://www.w3.org/2000/svg"><g clip-path="url(#acclip0_9_155)" stroke="#fff" stroke-opacity=".4"><path opacity=".2" d="M-88.193 0L1408.61 728.783M-176.241 42.87L1320.57 771.651M-264.289 85.74L1232.52 814.521M-352.336 128.608L1144.47 857.391M-440.383 171.479L1056.42 900.261M-528.43 214.348L968.377 943.13M-616.478 257.218L880.33 986.001M-704.526 300.087L792.281 1028.87M-792.574 342.957L704.234 1071.74M-880.62 385.826L616.187 1114.61M-968.668 428.695L528.139 1157.48M-1056.71 471.565L440.093 1200.35M-1144.76 514.435L352.045 1243.22M-1232.81 557.305L263.996 1286.09M-1320.86 600.174L175.949 1328.96M-1408.91 643.044L87.902 1371.83M-1496.95 685.913L-.145 1414.7M87.902 85.74L-1408.91 814.521M175.949 128.608L-1320.86 857.391M263.997 171.479L-1232.81 900.261M352.045 214.348L-1144.76 943.13M440.092 257.218L-1056.72 986.001M528.139 300.087L-968.668 1028.87M616.187 342.957L-880.621 1071.74M704.217 385.826L-792.59 1114.61M792.265 428.695L-704.543 1157.48M880.312 471.565L-616.496 1200.35M968.359 514.435L-528.448 1243.22M1056.41 557.305L-440.401 1286.09M1144.45 600.174L-352.353 1328.96M1232.5 643.044L-264.306 1371.83"/></g><defs><clipPath id="acclip0_9_155"><path fill="#fff" transform="translate(-1585)" d="M0 0h2682v721H0z"/></clipPath></defs></svg><svg fill="none" viewBox="0 0 16 16" id="check" xmlns="http://www.w3.org/2000/svg"><g clip-path="url(#adclip0_21_12651)"><path d="M4.356 6.311L3.11 7.556l4 4L16 2.666l-1.244-1.244L7.11 9.067 4.356 6.31zm9.866 7.911H1.778V1.778h8.889V0h-8.89C.8 0 0 .8 0 1.778v12.444C0 15.2.8 16 1.778 16h12.444C15.2 16 16 15.2 16 14.222v-7.11h-1.778v7.11z" fill="url(#adpaint0_linear_21_12651)"/></g><defs><linearGradient id="adpaint0_linear_21_12651" x1="0" y1="8" x2="16" y2="8" gradientUnits="userSpaceOnUse"><stop stop-color="#0CBAF1"/><stop offset="1" stop-color="#E95CE9"/></linearGradient><clipPath id="adclip0_21_12651"><path fill="#fff" d="M0 0h16v16H0z"/></clipPath></defs></svg><svg fill="none" viewBox="0 0 20 20" id="check-circle" xmlns="http://www.w3.org/2000/svg"><path fill-rule="evenodd" clip-rule="evenodd" d="M10 18a8 8 0 100-16 8 8 0 000 16zm3.707-9.293a1 1 0 00-1.414-1.414L9 10.586 7.707 9.293a1 1 0 00-1.414 1.414l2 2a1 1 0 001.414 0l4-4z" fill="#71717A"/></svg><svg fill="none" viewBox="0 0 16 16" id="circle-check" xmlns="http://www.w3.org/2000/svg"><path fill-rule="evenodd" clip-rule="evenodd" d="M8 16A8 8 0 108 0a8 8 0 000 16zm3.707-9.293a1 1 0 00-1.414-1.414L7 8.586 5.707 7.293a1 1 0 00-1.414 1.414l2 2a1 1 0 001.414 0l4-4z" fill="#71717A"/></svg><svg fill="none" viewBox="0 0 42 42" id="cloud" xmlns="http://www.w3.org/2000/svg"><circle cx="21" cy="21" r="20.25" fill="#18181B" stroke="url(#agpaint0_linear_43_1510)" stroke-width="1.5"/><path d="M13.375 22.875a3.167 3.167 0 003.167 3.166h7.125a3.958 3.958 0 10-.08-7.916 3.96 3.96 0 10-7.741 1.66 3.168 3.168 0 00-2.471 3.09z" stroke="#D4D4D8" stroke-width="1.5" stroke-linecap="round" stroke-linejoin="round"/><defs><linearGradient id="agpaint0_linear_43_1510" x1="0" y1="21" x2="42" y2="21" gradientUnits="userSpaceOnUse"><stop stop-color="#0CBAF1"/><stop offset="1" stop-color="#E95CE9"/></linearGradient></defs></svg><svg fill="none" viewBox="0 0 48 48" id="consult" xmlns="http://www.w3.org/2000/svg"><g clip-path="url(#ahclip0_84_3523)"><mask id="aha" style="mask-type:luminance" maskUnits="userSpaceOnUse" x="0" y="0" width="48" height="48"><path d="M0 0h48v48H0V0z" fill="#fff"/></mask><g mask="url(#aha)" fill-rule="evenodd" clip-rule="evenodd"><path d="M39.797 40.162c0 .388.315.703.703.703h2.707A4.8 4.8 0 0048 36.06V16.476a4.8 4.8 0 00-4.793-4.807H32.429a.703.703 0 000 1.406h10.778a3.394 3.394 0 013.387 3.4V36.06c0 1.88-1.519 3.4-3.387 3.4H40.5a.703.703 0 00-.703.703z" fill="url(#ahpaint0_linear_84_3523)"/><path d="M6.563 47.938a.703.703 0 00.754-.115l7.847-6.958h21.181a.703.703 0 000-1.406H14.897a.703.703 0 00-.466.177l-6.877 6.098v-5.572a.703.703 0 00-.703-.703H4.793a3.394 3.394 0 01-3.387-3.4V16.474c0-1.88 1.519-3.4 3.387-3.4h10.574a.703.703 0 000-1.406H4.793A4.8 4.8 0 000 16.475v19.583a4.8 4.8 0 004.793 4.807h1.355v6.432c0 .277.162.528.415.641z" fill="url(#ahpaint1_linear_84_3523)"/><path d="M7.531 22.013c0 .388.315.703.703.703h31.532a.703.703 0 000-1.406H8.234a.703.703 0 00-.703.703z" fill="url(#ahpaint2_linear_84_3523)"/><path d="M7.531 26.766c0 .388.315.703.703.703h31.532a.703.703 0 000-1.407H8.234a.703.703 0 00-.703.704z" fill="url(#ahpaint3_linear_84_3523)"/><path d="M7.531 31.518c0 .388.315.703.703.703h18.922a.703.703 0 000-1.406H8.234a.703.703 0 00-.703.703z" fill="url(#ahpaint4_linear_84_3523)"/><path d="M14.42 9.58A9.58 9.58 0 0024 19.162 9.58 9.58 0 1019.32 1.22a.703.703 0 00.688 1.226 8.174 8.174 0 11-2.552 2.236.703.703 0 10-1.125-.844 9.54 9.54 0 00-1.911 5.743z" fill="url(#ahpaint5_linear_84_3523)"/><path d="M18.436 15.566A6.624 6.624 0 0124 12.542c2.278 0 4.302 1.196 5.54 3.045A8.138 8.138 0 0124 17.755c-2.15 0-4.104-.83-5.564-2.19zm-1.395.595a9.553 9.553 0 006.959 3 9.553 9.553 0 006.943-2.982.703.703 0 00.101-.833c-1.423-2.5-4.029-4.21-7.044-4.21a8.035 8.035 0 00-7.066 4.207.703.703 0 00.107.818z" fill="url(#ahpaint6_linear_84_3523)"/><path d="M19.87 8.436a4.129 4.129 0 108.259 0 4.129 4.129 0 00-8.258 0zM24 11.16a2.723 2.723 0 110-5.445 2.723 2.723 0 010 5.445z" fill="url(#ahpaint7_linear_84_3523)"/></g></g><defs><linearGradient id="ahpaint0_linear_84_3523" x1="31.726" y1="26.267" x2="48" y2="26.267" gradientUnits="userSpaceOnUse"><stop stop-color="#0CBAF1"/><stop offset="1" stop-color="#E95CE9"/></linearGradient><linearGradient id="ahpaint1_linear_84_3523" x1="0" y1="29.834" x2="37.048" y2="29.834" gradientUnits="userSpaceOnUse"><stop stop-color="#0CBAF1"/><stop offset="1" stop-color="#E95CE9"/></linearGradient><linearGradient id="ahpaint2_linear_84_3523" x1="7.531" y1="22.013" x2="40.469" y2="22.013" gradientUnits="userSpaceOnUse"><stop stop-color="#0CBAF1"/><stop offset="1" stop-color="#E95CE9"/></linearGradient><linearGradient id="ahpaint3_linear_84_3523" x1="7.531" y1="26.766" x2="40.469" y2="26.766" gradientUnits="userSpaceOnUse"><stop stop-color="#0CBAF1"/><stop offset="1" stop-color="#E95CE9"/></linearGradient><linearGradient id="ahpaint4_linear_84_3523" x1="7.531" y1="31.518" x2="27.859" y2="31.518" gradientUnits="userSpaceOnUse"><stop stop-color="#0CBAF1"/><stop offset="1" stop-color="#E95CE9"/></linearGradient><linearGradient id="ahpaint5_linear_84_3523" x1="14.42" y1="9.581" x2="33.58" y2="9.581" gradientUnits="userSpaceOnUse"><stop stop-color="#0CBAF1"/><stop offset="1" stop-color="#E95CE9"/></linearGradient><linearGradient id="ahpaint6_linear_84_3523" x1="16.848" y1="15.148" x2="31.137" y2="15.148" gradientUnits="userSpaceOnUse"><stop stop-color="#0CBAF1"/><stop offset="1" stop-color="#E95CE9"/></linearGradient><linearGradient id="ahpaint7_linear_84_3523" x1="19.871" y1="8.436" x2="28.129" y2="8.436" gradientUnits="userSpaceOnUse"><stop stop-color="#0CBAF1"/><stop offset="1" stop-color="#E95CE9"/></linearGradient><clipPath id="ahclip0_84_3523"><path fill="#fff" d="M0 0h48v48H0z"/></clipPath></defs></svg><svg fill="none" viewBox="0 0 64 60" id="custom" xmlns="http://www.w3.org/2000/svg"><path d="M57.602 40.828h.02a.267.267 0 00.029-.024.22.22 0 00.032-.028.223.223 0 00.04-.046l.023-.032a.469.469 0 00.053-.192V12.115a.373.373 0 00-.065-.208.375.375 0 00-.166-.14L32.24.235a.378.378 0 00-.133-.145.354.354 0 00-.303-.046.365.365 0 00-.254.017.389.389 0 00-.186.174L6.034 11.768a.377.377 0 00-.168.14.373.373 0 00-.064.207v28.381c0 .034.005.067.015.1 0 .012 0 .019.011.03.012.012.016.041.028.063l.023.032a.381.381 0 00.04.046l.032.028a.42.42 0 00.027.023H6l.02.014 25.517 12.341a.356.356 0 00.166.038.37.37 0 00.165-.038l25.717-12.34.018-.005zm-8.218 3.1l-7.903-3.765 6.837-3.26a.166.166 0 00.086-.089l8.11 3.692-7.13 3.422zm-9.207 4.42l-7.932-3.78 8.803-4.194 7.903 3.767-8.774 4.207zm-25.55-4.193l7.936-3.781 8.803 4.193-8 3.81-8.739-4.222zm-7.543-3.647l8.109-3.694a.16.16 0 00.085.088l6.837 3.261-7.928 3.779-7.103-3.434zm17.51-7.973l6.763 3.224-8.804 4.194-6.955-3.321 8.996-4.097zm.464-.206l6.753-3.072 6.751 3.072-6.753 3.219-6.751-3.219zm13.959.206l8.998 4.097-6.967 3.32-8.803-4.193 6.772-3.224zm-16.012 7.628l8.803-4.194 8.804 4.194-8.804 4.191-8.803-4.19zm34.03-19.135l-.408-.186a.202.202 0 00-.146-.005.2.2 0 00-.106.1.188.188 0 00-.005.146.182.182 0 00.099.106l.565.258v9.852l-.407-.185a.185.185 0 00-.146-.005.196.196 0 00-.106.1.188.188 0 00-.005.146.185.185 0 00.099.106l.565.258v8.184l-24.75-11.267v-8.185l.206.095a.185.185 0 00.147.006.187.187 0 00.113-.245.187.187 0 00-.1-.108l-.367-.167V10.18l.207.095a.185.185 0 00.147.005.189.189 0 00.11-.246.187.187 0 00-.097-.107l-.367-.173v-8.66L57.034 12.36v8.667zM31.518 1.003v8.568l-.765.349a.19.19 0 00-.09.089.19.19 0 00.05.234.187.187 0 00.12.043.199.199 0 00.078-.018l.607-.278v9.862l-.765.351a.186.186 0 00-.1.107.187.187 0 00.005.145.18.18 0 00.174.112.187.187 0 00.08-.019l.606-.277v8.185L6.567 39.9V31.72l.565-.26a.181.181 0 00.099-.108.184.184 0 00-.006-.146.18.18 0 00-.107-.1.18.18 0 00-.145.007l-.406.185v-9.85l.565-.26a.181.181 0 00.099-.108.183.183 0 00-.006-.146.184.184 0 00-.107-.1.183.183 0 00-.145.007l-.406.185v-8.664L31.519 1.003zm.183 51.404l-7.904-3.823 8.001-3.813 7.935 3.78-8.032 3.856zM23.343 13.54a.181.181 0 01-.006-.145.18.18 0 01.099-.107l1.83-.838a.183.183 0 01.138.005c.045.02.078.052.098.096.021.045.024.09.01.138a.185.185 0 01-.086.108l-1.83.838a.196.196 0 01-.079.016.176.176 0 01-.174-.11zm3.659-1.676a.183.183 0 01-.006-.146.181.181 0 01.098-.108l1.83-.84a.185.185 0 01.138.007c.045.019.078.051.099.095.02.046.023.09.009.138a.188.188 0 01-.086.108l-1.83.839a.197.197 0 01-.08.018.177.177 0 01-.172-.111zM8.698 20.255a.188.188 0 01.048-.215.193.193 0 01.069-.038l1.827-.84a.194.194 0 01.225.02c.02.018.037.04.048.064.011.025.017.05.017.079a.188.188 0 01-.13.184l-1.83.838a.187.187 0 01-.08.019.19.19 0 01-.109-.028.19.19 0 01-.076-.083h-.009zm3.668-1.68a.188.188 0 01.095-.254l1.828-.84a.194.194 0 01.225.02c.02.018.036.04.048.064.011.025.017.051.017.079a.185.185 0 01-.062.143.19.19 0 01-.068.04l-1.828.84a.185.185 0 01-.081.017.179.179 0 01-.174-.109zm3.658-1.678a.182.182 0 01-.004-.146.185.185 0 01.1-.107l1.83-.84a.185.185 0 01.145-.005.188.188 0 01.112.246.187.187 0 01-.1.107l-1.828.84a.19.19 0 01-.146.003.19.19 0 01-.109-.098zm3.66-1.68a.181.181 0 01-.005-.145.183.183 0 01.099-.106l1.83-.838a.19.19 0 01.221.302.18.18 0 01-.064.043l-1.83.838a.198.198 0 01-.18-.013.182.182 0 01-.07-.08zm25.623.682a.185.185 0 01.108-.1.189.189 0 01.147.005l1.853.84c.047.023.08.059.098.108a.186.186 0 01-.075.227.2.2 0 01-.183.013l-1.853-.84a.189.189 0 01-.1-.107.185.185 0 01.005-.146zm7.378 3.36a.191.191 0 01.253-.095l1.854.838a.192.192 0 01-.079.366.19.19 0 01-.08-.02l-1.852-.837a.186.186 0 01-.1-.107.18.18 0 01-.012-.073c0-.025.006-.05.017-.072zM41.618 14.22a.184.184 0 01.107-.1.185.185 0 01.145.005l1.855.84c.047.022.08.058.098.107a.185.185 0 01-.006.146.188.188 0 01-.174.111.19.19 0 01-.076-.018l-1.854-.84a.185.185 0 01-.098-.107.184.184 0 01.003-.144zm7.38 3.358a.184.184 0 01.107-.1.182.182 0 01.145.007l1.853.838a.19.19 0 01.04.322.187.187 0 01-.118.044.177.177 0 01-.08-.019l-1.853-.838a.185.185 0 01-.1-.107.185.185 0 01.005-.147zm-14.756-6.716a.188.188 0 01.042-.061.188.188 0 01.064-.039.185.185 0 01.146.005l1.853.84a.187.187 0 01.106.214.186.186 0 01-.066.107.185.185 0 01-.119.044.183.183 0 01-.078-.019l-1.854-.838a.203.203 0 01-.06-.043.185.185 0 01-.04-.063.185.185 0 01.006-.147zm3.688 1.67a.186.186 0 01.107-.1.187.187 0 01.145.005l1.853.841a.178.178 0 01.101.106.185.185 0 01-.006.146.183.183 0 01-.106.099.182.182 0 01-.146-.004l-1.853-.84a.195.195 0 01-.113-.18c.001-.026.007-.05.018-.073zM23.334 23.804a.186.186 0 01-.006-.147.183.183 0 01.099-.108l1.837-.829a.19.19 0 01.236.102c.02.044.024.09.01.137a.185.185 0 01-.087.109l-1.83.838a.193.193 0 01-.078.018.18.18 0 01-.172-.11l-.009-.01zm-3.65 1.695a.182.182 0 01-.005-.146.187.187 0 01.099-.107l1.83-.838a.185.185 0 01.145-.005.18.18 0 01.107.098.182.182 0 01.006.145.183.183 0 01-.098.107l-1.833.832a.2.2 0 01-.078.016.172.172 0 01-.172-.102zm-3.66 1.679a.182.182 0 01-.004-.146.183.183 0 01.1-.106l1.83-.842a.188.188 0 01.145-.003.187.187 0 01.124.171.187.187 0 01-.051.137.202.202 0 01-.06.043l-1.829.84a.194.194 0 01-.146.005.19.19 0 01-.109-.1zm-3.658 1.678a.195.195 0 01-.005-.145.186.186 0 01.1-.107l1.828-.84a.188.188 0 01.156-.018.19.19 0 01.135.18.189.189 0 01-.062.144.2.2 0 01-.069.04l-1.828.841a.19.19 0 01-.255-.104v.01zm-3.659 1.679a.182.182 0 01-.005-.146.183.183 0 01.1-.106l1.828-.848a.19.19 0 01.225.02.18.18 0 01.048.066c.012.024.018.05.018.077a.186.186 0 01-.061.144.186.186 0 01-.07.04l-1.83.839a.175.175 0 01-.079.018.179.179 0 01-.174-.113v.009zm18.304-8.391a.185.185 0 01-.006-.147.185.185 0 01.099-.108l1.83-.838a.185.185 0 01.137.005c.046.02.079.051.099.097.02.044.024.09.01.137a.18.18 0 01-.087.108l-1.83.839a.195.195 0 01-.19-.014.184.184 0 01-.071-.088l.009.009zm21.995 5.714a.183.183 0 01.108-.098.182.182 0 01.145.006l1.854.838c.04.02.07.049.09.088a.192.192 0 01-.17.278.179.179 0 01-.078-.019l-1.854-.838a.193.193 0 01-.104-.264l.01.009zM37.93 22.813a.186.186 0 01.107-.1.198.198 0 01.145.005l1.853.84a.193.193 0 01.1.107.185.185 0 01-.005.146.183.183 0 01-.106.099.188.188 0 01-.146-.004l-1.853-.841a.182.182 0 01-.1-.106.185.185 0 01.005-.146zm3.688 1.678a.185.185 0 01.107-.098.185.185 0 01.145.003l1.855.84c.047.023.08.06.098.108a.185.185 0 01-.006.146.186.186 0 01-.07.081.2.2 0 01-.182.014l-1.854-.84a.188.188 0 01-.098-.108.188.188 0 01.005-.146zm-7.376-3.357a.187.187 0 01.252-.095l1.853.84a.2.2 0 01.061.044.187.187 0 01.034.21.18.18 0 01-.174.11.184.184 0 01-.078-.016l-1.854-.84a.186.186 0 01-.1-.107.186.186 0 01.005-.146zm11.065 5.036a.186.186 0 01.108-.099.189.189 0 01.147.004l1.853.84a.19.19 0 01.098.108.188.188 0 01-.18.256.198.198 0 01-.078-.016l-1.853-.84a.19.19 0 01-.1-.107.185.185 0 01.005-.146zm9.57 4.358a.18.18 0 01-.173.111.158.158 0 01-.08-.018l-1.853-.838a.185.185 0 01-.1-.107.185.185 0 01.005-.145.188.188 0 01.107-.1.184.184 0 01.146.005l1.853.838a.182.182 0 01.1.107.186.186 0 01-.005.147zm8.66 14.087c0 3.441-2.97 6.702-8.358 9.179-5.202 2.39-12.28 3.9-19.946 4.247h-.026a.578.578 0 01-.407-.159.582.582 0 01-.138-.62.569.569 0 01.52-.365c15.256-.694 27.21-6.087 27.21-12.273 0-1.935-1.188-3.882-3.432-5.626a.572.572 0 11.694-.905c2.543 1.961 3.883 4.218 3.883 6.522zM30.245 57.517a.566.566 0 01-.306.475l-3.681 1.924a.563.563 0 01-.435.046.57.57 0 01-.108-1.05l1.733-.906C11.725 57.103.011 51.433.011 44.616c0-2.455 1.51-4.84 4.37-6.9a.562.562 0 01.433-.12.562.562 0 01.48.44.567.567 0 01-.244.606c-2.547 1.838-3.88 3.903-3.88 5.973 0 6.136 11.583 11.448 26.57 12.25l-1.763-1.2a.574.574 0 01-.239-.59.564.564 0 01.247-.362.567.567 0 01.637.005l3.373 2.292a.568.568 0 01.25.507z" fill="url(#aipaint0_linear_9_189)"/><defs><linearGradient id="aipaint0_linear_9_189" x1=".011" y1="30.006" x2="63.537" y2="30.006" gradientUnits="userSpaceOnUse"><stop stop-color="#0CBAF1"/><stop offset="1" stop-color="#E95CE9"/></linearGradient></defs></svg><svg fill="none" viewBox="0 0 48 7" id="decor" xmlns="http://www.w3.org/2000/svg"><mask id="aja" style="mask-type:luminance" maskUnits="userSpaceOnUse" x="0" y="0" width="48" height="7"><path d="M0 0h47.704v7H0V0z" fill="#fff"/></mask><g mask="url(#aja)"><mask id="ajb" style="mask-type:luminance" maskUnits="userSpaceOnUse" x="-1" y="-1" width="50" height="9"><path d="M-.297 3.8L47.586-.848 48 2.697.117 7.345-.297 3.8z" fill="#fff"/></mask><g mask="url(#ajb)"><mask id="ajc" style="mask-type:luminance" maskUnits="userSpaceOnUse" x="-1" y="-1" width="50" height="9"><path d="M-.297 3.8L47.586-.848 48 2.697.117 7.345-.297 3.8z" fill="#fff"/></mask><g mask="url(#ajc)"><path d="M43.517 1.86c-.509.025-1.018.048-1.527.075-1.16.06-2.32.11-3.477.188a39.45 39.45 0 00-2.593.279c-.23.03-.466.015-.694.05-2.154.334-4.34.437-6.5.724-.977.13-1.961.206-2.934.362-2.163.345-4.35.55-6.518.867-1.445.212-2.89.422-4.337.631-1.469.212-2.939.418-4.408.631-1.181.173-2.362.347-3.541.532-.585.092-1.177.11-1.764.171-1.074.112-2.14.276-3.217.362a1.01 1.01 0 01-.474-.033c-.168-.063-.366.003-.552.01l-.935.032c.223-.094.458-.14.703-.14.222-.027.383-.075.387-.311 0-.025.036-.049.082-.106l-1.14.11c.178-.141.228-.154.763-.205.256-.008.507-.045.754-.109.248-.081.45-.251.74-.285-.097-.074-.183-.04-.31-.065l1.042-.194c.055-.01.116-.006.15-.06.049-.076-.199-.21.072-.252.117-.018.121-.2.26-.24.07-.021.124-.075.091-.146-.036-.08-.121-.04-.184-.033-.448.052-.897.107-1.345.162a.823.823 0 01-.485-.041c.16-.027.319-.052.478-.08.172-.03.34-.069.512-.097.812-.133 1.624-.268 2.437-.395 1.352-.213 2.706-.418 4.056-.628 1.008-.156 2.011-.332 3.022-.47.723-.1 1.443-.218 2.163-.328.743-.112 1.485-.24 2.229-.349.767-.111 1.535-.228 2.303-.334.791-.11 1.584-.21 2.374-.324 1.389-.198 2.785-.336 4.18-.488 1.557-.169 3.117-.323 4.677-.47C31.317.744 32.58.644 33.841.54a64.087 64.087 0 012.568-.158c1.67-.072 3.337-.18 5.009-.238C43.31.079 45.204.059 47.097.011c.199-.006.395.013.589.055-.286.027-.571.07-.858.08-.603.02-1.21-.014-1.81.041-.787.073-1.58-.008-2.362.09-.437.055-.876.083-1.318.085-.023 0-.053-.004-.067.007-.33.27-.75.126-1.122.197a10.7 10.7 0 01-1.304.173 286.48 286.48 0 00-4.234.316c-1.701.142-3.403.277-5.097.48-.098.011-.213-.008-.301.096.1.08.218.046.32.04 1.268-.077 2.537-.157 3.806-.24.336-.022.673-.037 1.006-.075.428-.03.855-.019 1.28.034.116.01.232.013.348.006 1.586-.122 3.178-.163 4.765-.258a5.799 5.799 0 011.077-.028c.382.049.779 0 1.15.175.263.106.537.14.821.098a.986.986 0 01.4.025.683.683 0 01-.42.095.505.505 0 00-.203.028c-.24.063-.246.095-.068.27.014.013.013.039.02.059h.002zm-27.126 3.3a.955.955 0 00-.667-.063c-.27.059-.544.104-.82.136-1.027.112-2.043.287-3.065.43-2.675.375-5.347.771-8.033 1.088-.064.008-.144-.006-.174.055.008.027.023.05.041.073a.238.238 0 00.154.08c.03.003.06.002.09-.005.378-.054.762-.081 1.141-.131 2.136-.285 4.26-.642 6.405-.877.103-.011.205-.037.308-.051.8-.104 1.588-.275 2.39-.377.655-.082 1.308-.184 1.96-.282a.47.47 0 00.26-.084l.01.008zm-1.668.189a.224.224 0 01-.233.024.325.325 0 01.232-.024zm1.657-.197a.41.41 0 00.238.01 94.397 94.397 0 011.541-.224c1.227-.165 2.454-.327 3.681-.488l.969-.126a.764.764 0 00-.6-.008c-.237.087-.523.061-.787.095-.37.024-.735.073-1.096.149a1.926 1.926 0 01-.85.053l.533-.082c-.6.043-1.196.114-1.788.215-.51.06-1.019.143-1.53.207-.092.01-.182.03-.27.056-.09.03-.08.09-.031.151l-.01-.008zm1.43-.282c.217-.075.443-.103.675-.08-.22.063-.445.09-.675.08zm17.505-2.086l2.326-.226-.002-.02-2.317.224-.007.022zM44.59 1.75c.042.091.13.078.208.068.22-.01.436-.038.65-.084l-.86.016h.002zM22.03 4.255l-.777.075.003.028.778-.076-.004-.027zM44.588 1.75c-.36.034-.728-.021-1.074.11l.005-.001c.363.01.72-.026 1.07-.11h-.001zM33.829 2.922l.468-.045-.003-.016-.474.046.01.015zm-4.134.398l-.47.045.002.02.467-.046v-.02zm-4.854.586c-.192.028-.332-.01-.456.065.16.027.313.006.456-.065zm5.279-.615l.403-.04a.918.918 0 00-.403.04zm-5.495.79l.392-.038c-.13-.013-.271-.09-.392.038zm7.333-.998a.839.839 0 00-.383.085c.157-.034.257-.01.383-.085zm2.705-.236a.411.411 0 00.23-.036c-.08.004-.162-.016-.23.036zM23.679 4.06c.037-.003.037-.024-.012-.041l-.335.054c.165-.005.257-.005.347-.013zm-.15.13a.771.771 0 00.373-.056c-.154.015-.246-.038-.374.057zm4.476-.641a.262.262 0 00-.181.021c.064.004.125.019.181-.021zm-1.926.2l.166-.016-.166-.006v.022zm5.076-.566c.026.01.053.014.08.01a.156.156 0 00.075-.029c-.057-.006-.113-.025-.156.02h.001zm-2.26.22a.395.395 0 00-.067-.001.161.161 0 00-.044.018l.067.004.043-.022z" fill="url(#ajpaint0_linear_10_210)"/></g></g></g><defs><linearGradient id="ajpaint0_linear_10_210" x1=".046" y1="3.485" x2="47.686" y2="3.485" gradientUnits="userSpaceOnUse"><stop stop-color="#0CBAF1"/><stop offset="1" stop-color="#E95CE9"/></linearGradient></defs></svg><svg fill="none" viewBox="0 0 48 48" id="design" xmlns="http://www.w3.org/2000/svg"><mask id="aka" style="mask-type:luminance" maskUnits="userSpaceOnUse" x="0" y="0" width="48" height="48"><path d="M0 0h48v48H0V0z" fill="#fff"/></mask><g mask="url(#aka)" fill-rule="evenodd" clip-rule="evenodd"><path d="M18.962 39.651a1.864 1.864 0 01-1.864-1.861v-.003l-.01-1.697v-.001c-.004-2.769-1.023-5.465-2.93-7.495a13.449 13.449 0 01-3.659-9.122c-.064-7.39 5.919-13.516 13.308-13.619a13.463 13.463 0 019.998 4.219.703.703 0 101.021-.967 14.869 14.869 0 00-11.038-4.658c-8.164.114-14.765 6.874-14.695 15.037a14.855 14.855 0 004.04 10.073c1.652 1.758 2.545 4.107 2.549 6.535v.003l.01 1.697v.002a3.27 3.27 0 003.27 3.264l10.1-.001a3.27 3.27 0 003.27-3.275v-.003l-.01-1.762v-.002c-.003-2.386.874-4.695 2.503-6.414l-.475-.45.475.45a14.857 14.857 0 004.083-10.249 14.84 14.84 0 00-2.236-7.855.703.703 0 10-1.195.742 13.433 13.433 0 012.024 7.113 13.45 13.45 0 01-3.697 9.282c-1.89 1.994-2.892 4.656-2.888 7.385v.003l.01 1.762c0 1.03-.834 1.867-1.864 1.867h-10.1z" fill="url(#akpaint0_linear_84_3489)"/><path d="M21.422 48a3.137 3.137 0 01-3.137-3.15L21.422 48zm0 0h5.144a3.136 3.136 0 003.137-3.123l.02-4.52a.703.703 0 00-.704-.706H19.008a.703.703 0 00-.703.701l-.02 4.498m1.406.006l.017-3.798h8.605l-.017 3.813a1.73 1.73 0 01-1.73 1.722h-5.144a1.73 1.73 0 01-1.73-1.737z" fill="url(#akpaint1_linear_84_3489)"/><path d="M20.193 23.773c.022.371.33.66.702.66h6.203c.35 0 .648-.257.696-.604a7.297 7.297 0 011.8-3.859c.3-.334.363-.822.149-1.222m-8.637 2.734c.224.563.35 1.09.42 1.545l-.42-1.545zm.42 1.545h4.983a8.68 8.68 0 011.884-3.82 43.272 43.272 0 00-4.4-6.582 39.897 39.897 0 00-4.379 6.547 7.154 7.154 0 011.492 2.31m-1.608-2.09v-.001zm9.051-.363zm-.046.384zm-8.31 4.36a5.714 5.714 0 00-.394-1.771l.394 1.77zm-.394-1.771zm0 0a5.77 5.77 0 00-1.346-2.003l1.346 2.003zm-1.346-2.003a1.066 1.066 0 01-.2-1.262l.2 1.262zm11.29-1.251a44.73 44.73 0 00-4.735-7.101m-6.754 7.09a41.263 41.263 0 012.018-3.426l-2.018 3.425zm4.73-7.098a41.289 41.289 0 00-2.712 3.672m4.736-3.664a1.31 1.31 0 00-2.025-.008" fill="url(#akpaint2_linear_84_3489)"/><path d="M20.195 26.571c0 .389.315.703.703.703h6.204a.703.703 0 00.703-.703v-2.84a.703.703 0 00-.703-.704h-6.204a.703.703 0 00-.703.704v2.84zm1.406-.703v-1.434H26.4v1.434H21.6z" fill="url(#akpaint3_linear_84_3489)"/><path d="M27.865 41.057a.703.703 0 00.703-.704V27.325c0-.806-.654-1.456-1.457-1.456H20.89c-.803 0-1.457.65-1.457 1.456v9.991a.703.703 0 001.406 0v-9.99a.05.05 0 01.05-.05h6.223a.05.05 0 01.051.05v13.027c0 .389.315.704.703.704z" fill="url(#akpaint4_linear_84_3489)"/><path d="M24 20.248a.703.703 0 00.703-.703v-7.677a.703.703 0 00-1.406 0v7.677c0 .388.315.703.703.703z" fill="url(#akpaint5_linear_84_3489)"/><path d="M19.432 29.828c0 .389.315.703.703.703h7.73a.703.703 0 100-1.406h-7.73a.703.703 0 00-.703.703z" fill="url(#akpaint6_linear_84_3489)"/><path d="M23.994 2.707a.703.703 0 00.703-.703v-1.3a.703.703 0 00-1.407 0v1.3c0 .388.315.703.704.703z" fill="url(#akpaint7_linear_84_3489)"/><path d="M40.507 19.766c0 .388.314.703.703.703h1.26a.703.703 0 000-1.407h-1.26a.703.703 0 00-.703.704z" fill="url(#akpaint8_linear_84_3489)"/><path d="M4.827 19.766c0 .388.315.703.704.703h1.26a.703.703 0 000-1.407H5.53a.703.703 0 00-.704.704z" fill="url(#akpaint9_linear_84_3489)"/><path d="M35.68 7.711c.279.27.724.263.994-.016l.89-.92a.703.703 0 00-1.01-.978l-.89.92a.703.703 0 00.016.994z" fill="url(#akpaint10_linear_84_3489)"/><path d="M10.45 33.75c.28.27.725.262.995-.017l.89-.92a.703.703 0 10-1.009-.978l-.89.92a.703.703 0 00.015.994z" fill="url(#akpaint11_linear_84_3489)"/><path d="M37.55 33.75a.703.703 0 00.015-.995l-.891-.92a.703.703 0 10-1.01.979l.89.92c.271.278.716.285.995.015z" fill="url(#akpaint12_linear_84_3489)"/><path d="M12.32 7.711a.703.703 0 00.016-.994l-.891-.92a.703.703 0 10-1.01.979l.891.92c.27.278.715.285.994.015z" fill="url(#akpaint13_linear_84_3489)"/><path d="M18.285 43.592c0 .388.315.703.703.703h7.3a.703.703 0 000-1.406h-7.3a.703.703 0 00-.703.703z" fill="url(#akpaint14_linear_84_3489)"/></g><defs><linearGradient id="akpaint0_linear_84_3489" x1="9.093" y1="22.752" x2="38.908" y2="22.752" gradientUnits="userSpaceOnUse"><stop stop-color="#0CBAF1"/><stop offset="1" stop-color="#E95CE9"/></linearGradient><linearGradient id="akpaint1_linear_84_3489" x1="18.285" y1="43.825" x2="29.722" y2="43.825" gradientUnits="userSpaceOnUse"><stop stop-color="#0CBAF1"/><stop offset="1" stop-color="#E95CE9"/></linearGradient><linearGradient id="akpaint2_linear_84_3489" x1="18.131" y1="17.799" x2="29.87" y2="17.799" gradientUnits="userSpaceOnUse"><stop stop-color="#0CBAF1"/><stop offset="1" stop-color="#E95CE9"/></linearGradient><linearGradient id="akpaint3_linear_84_3489" x1="20.195" y1="25.151" x2="27.805" y2="25.151" gradientUnits="userSpaceOnUse"><stop stop-color="#0CBAF1"/><stop offset="1" stop-color="#E95CE9"/></linearGradient><linearGradient id="akpaint4_linear_84_3489" x1="19.432" y1="33.463" x2="28.568" y2="33.463" gradientUnits="userSpaceOnUse"><stop stop-color="#0CBAF1"/><stop offset="1" stop-color="#E95CE9"/></linearGradient><linearGradient id="akpaint5_linear_84_3489" x1="23.297" y1="15.707" x2="24.703" y2="15.707" gradientUnits="userSpaceOnUse"><stop stop-color="#0CBAF1"/><stop offset="1" stop-color="#E95CE9"/></linearGradient><linearGradient id="akpaint6_linear_84_3489" x1="19.432" y1="29.828" x2="28.568" y2="29.828" gradientUnits="userSpaceOnUse"><stop stop-color="#0CBAF1"/><stop offset="1" stop-color="#E95CE9"/></linearGradient><linearGradient id="akpaint7_linear_84_3489" x1="23.29" y1="1.354" x2="24.697" y2="1.354" gradientUnits="userSpaceOnUse"><stop stop-color="#0CBAF1"/><stop offset="1" stop-color="#E95CE9"/></linearGradient><linearGradient id="akpaint8_linear_84_3489" x1="40.507" y1="19.766" x2="43.172" y2="19.766" gradientUnits="userSpaceOnUse"><stop stop-color="#0CBAF1"/><stop offset="1" stop-color="#E95CE9"/></linearGradient><linearGradient id="akpaint9_linear_84_3489" x1="4.827" y1="19.766" x2="7.493" y2="19.766" gradientUnits="userSpaceOnUse"><stop stop-color="#0CBAF1"/><stop offset="1" stop-color="#E95CE9"/></linearGradient><linearGradient id="akpaint10_linear_84_3489" x1="35.466" y1="6.746" x2="37.763" y2="6.746" gradientUnits="userSpaceOnUse"><stop stop-color="#0CBAF1"/><stop offset="1" stop-color="#E95CE9"/></linearGradient><linearGradient id="akpaint11_linear_84_3489" x1="10.237" y1="32.784" x2="12.534" y2="32.784" gradientUnits="userSpaceOnUse"><stop stop-color="#0CBAF1"/><stop offset="1" stop-color="#E95CE9"/></linearGradient><linearGradient id="akpaint12_linear_84_3489" x1="35.466" y1="32.784" x2="37.763" y2="32.784" gradientUnits="userSpaceOnUse"><stop stop-color="#0CBAF1"/><stop offset="1" stop-color="#E95CE9"/></linearGradient><linearGradient id="akpaint13_linear_84_3489" x1="10.237" y1="6.746" x2="12.534" y2="6.746" gradientUnits="userSpaceOnUse"><stop stop-color="#0CBAF1"/><stop offset="1" stop-color="#E95CE9"/></linearGradient><linearGradient id="akpaint14_linear_84_3489" x1="18.285" y1="43.592" x2="26.992" y2="43.592" gradientUnits="userSpaceOnUse"><stop stop-color="#0CBAF1"/><stop offset="1" stop-color="#E95CE9"/></linearGradient></defs></svg><svg fill="none" viewBox="0 0 48 48" id="development" xmlns="http://www.w3.org/2000/svg"><g clip-path="url(#alclip0_84_3463)"><path d="M45.835 7.875H36a.703.703 0 100 1.406h9.835a.76.76 0 01.759.759v27.076a.76.76 0 01-.759.759H2.165a.76.76 0 01-.759-.759V10.04a.76.76 0 01.759-.759h15.448v1.406H3.516a.703.703 0 00-.704.704v18.578a.703.703 0 101.407 0V12.094h13.394v3.772l-3.01 1.438a.708.708 0 00-.4.635v11.466c0 .271.156.518.4.635l9.094 4.345c.197.092.42.087.606 0l5.113-2.443a.703.703 0 10-.607-1.269l-4.106 1.962v-9.909l7.688-3.672v9.908l-1.045.499a.703.703 0 00.606 1.269l1.445-.69a.704.704 0 00.4-.635V17.94a.708.708 0 00-.4-.635l-3.01-1.438v-3.772H43.78v22.968H4.22V32.97a.703.703 0 10-1.407 0v2.797c0 .388.315.703.704.703h40.968a.703.703 0 00.703-.703V11.39a.703.703 0 00-.703-.704H30.387V9.281H33a.703.703 0 100-1.406h-2.613V6.469h6.304a.703.703 0 00.703-.703V4.098a2.113 2.113 0 001.407-1.989C38.8.946 37.854 0 36.69 0c-1.163 0-2.109.946-2.109 2.11 0 .916.588 1.698 1.406 1.988v.965h-6.304a.703.703 0 00-.704.703v2.109h-4.277V4.098a2.113 2.113 0 001.406-1.989C26.11.946 25.163 0 24 0s-2.11.946-2.11 2.11c0 .916.588 1.698 1.407 1.988v3.777H19.02v-2.11a.703.703 0 00-.704-.702h-6.304v-.965a2.113 2.113 0 001.406-1.989C13.418.946 12.472 0 11.308 0 10.147 0 9.2.946 9.2 2.11c0 .916.588 1.698 1.406 1.988v1.668c0 .388.315.703.704.703h6.304v1.406H2.165A2.167 2.167 0 000 10.04v27.076c0 1.194.971 2.165 2.165 2.165h15.244c-.272 2.58-1.978 4.086-2.515 4.5h-2.988c-1.163 0-2.11.947-2.11 2.11 0 1.163.947 2.109 2.11 2.109h24.188c1.163 0 2.11-.946 2.11-2.11 0-1.163-.947-2.109-2.11-2.109h-2.986c-.53-.413-2.242-1.933-2.516-4.5h15.243A2.167 2.167 0 0048 37.116V10.04a2.167 2.167 0 00-2.165-2.165zm-9.144-6.469a.704.704 0 110 1.408.704.704 0 010-1.408zM24 1.406a.704.704 0 11-.001 1.408A.704.704 0 0124 1.406zm-12.691 0a.704.704 0 11-.002 1.408.704.704 0 01.002-1.408zm7.71 10.688h4.278v1.056l-4.277 2.044v-3.1zm12.444 5.845L24 21.503l-7.463-3.564L24 14.373l7.463 3.566zm-15.854 1.115l7.688 3.672v9.909l-7.688-3.673v-9.908zm13.371-3.86l-4.277-2.044v-1.056h4.277v3.1zm0-5.913v1.406h-4.277V9.281h4.277zm-5.683 0v1.406H19.02V9.281h4.277zm13.5 36.61a.704.704 0 01-.703.703H11.906a.704.704 0 010-1.407h24.188c.388 0 .703.316.703.704zm-5.706-2.11H16.91c.824-.962 1.739-2.463 1.914-4.5h10.354c.175 2.037 1.09 3.538 1.914 4.5z" fill="url(#alpaint0_linear_84_3463)"/></g><defs><linearGradient id="alpaint0_linear_84_3463" x1="0" y1="24" x2="48" y2="24" gradientUnits="userSpaceOnUse"><stop stop-color="#0CBAF1"/><stop offset="1" stop-color="#E95CE9"/></linearGradient><clipPath id="alclip0_84_3463"><path fill="#fff" d="M0 0h48v48H0z"/></clipPath></defs></svg><svg viewBox="0 0 12 12" id="down" xmlns="http://www.w3.org/2000/svg"><path d="M6 7.688l-3-3 .538-.538L6 6.625l2.463-2.462L9 4.7 6 7.688z"/></svg><svg fill="none" viewBox="0 0 19 17" id="email" xmlns="http://www.w3.org/2000/svg"><path fill-rule="evenodd" clip-rule="evenodd" d="M13.882.666c2.775 0 4.868 2.264 4.868 5.267v5.723c0 1.537-.543 2.925-1.53 3.91-.887.882-2.036 1.35-3.324 1.35H5.685c-1.286 0-2.434-.467-3.32-1.35-.988-.985-1.532-2.373-1.532-3.91V5.933C.833 2.93 2.926.666 5.701.666h8.181zm0 1.25H5.701c-2.096 0-3.618 1.69-3.618 4.017v5.723c0 1.202.414 2.277 1.164 3.024.646.646 1.49.986 2.44.986h8.195c.002-.002.009 0 .014 0 .95 0 1.794-.34 2.44-.986.751-.747 1.164-1.822 1.164-3.024V5.933c0-2.328-1.522-4.017-3.618-4.017zm1.314 3.857a.626.626 0 01-.091.88l-3.703 3.01a2.535 2.535 0 01-3.166.005L4.498 6.654a.626.626 0 01.784-.973l3.735 3.01c.469.372 1.13.372 1.602-.003l3.697-3.005a.624.624 0 01.88.09z" fill="#B0B0B2"/></svg><svg fill="none" viewBox="0 0 48 48" id="entertainment" xmlns="http://www.w3.org/2000/svg"><mask id="aoa" style="mask-type:luminance" maskUnits="userSpaceOnUse" x="0" y="0" width="48" height="48"><path d="M0 0h48v48H0V0z" fill="#fff"/></mask><g mask="url(#aoa)" fill-rule="evenodd" clip-rule="evenodd"><path d="M13.183 32.269a4.725 4.725 0 01-5.548-2.02l-.586.358.586-.358-3.897-6.4a10.833 10.833 0 01-.927-9.338L6.774 3.623l-.66-.24.66.24A3.368 3.368 0 0111.09 1.61L28.945 8.11l.24-.661-.24.66a3.368 3.368 0 012.013 4.318l-3.962 10.887a10.833 10.833 0 01-6.714 6.558l-7.099 2.398zm.45 1.332a6.132 6.132 0 01-7.199-2.62l-3.897-6.4.6-.365-.6.365A12.239 12.239 0 011.49 14.03L5.452 3.142A4.775 4.775 0 0111.572.29l17.854 6.498a4.775 4.775 0 012.854 6.12l-3.963 10.887a12.239 12.239 0 01-7.585 7.41l-.21-.621.21.62-7.099 2.398z" fill="url(#aopaint0_linear_84_3617)"/><path d="M18.558 23.656a5.403 5.403 0 01-5.95 1.562l-.24.661.24-.66a5.402 5.402 0 01-3.553-5.022c1.222 1.015 2.743 1.89 4.465 2.517s3.45.934 5.038.942zm-6.43 2.884a6.809 6.809 0 008.412-3.346.703.703 0 00-.71-1.013c-1.709.202-3.754-.033-5.83-.789-2.075-.755-3.792-1.89-4.97-3.142a.703.703 0 00-1.197.319 6.809 6.809 0 004.294 7.97z" fill="url(#aopaint1_linear_84_3617)"/><path d="M13.701 15.43a.703.703 0 00.511-.853c-.296-1.187-1.23-2.221-2.527-2.693M13.7 15.43a.703.703 0 01-.853-.511l.853.511zm-.853-.511c-.176-.705-.756-1.39-1.645-1.714l1.645 1.713zM7.86 13.303a.703.703 0 00.982.156c.588-.426 1.473-.579 2.361-.255m-3.343.1a.703.703 0 01.156-.983l-.156.982zm.156-.983c.991-.718 2.37-.91 3.668-.438l-3.668.438z" fill="url(#aopaint2_linear_84_3617)"/><path d="M23.903 19.144a.703.703 0 00.512-.853c-.297-1.187-1.23-2.221-2.528-2.694m2.016 3.547a.703.703 0 01-.852-.512l.852.512zm-.852-.512c-.177-.704-.756-1.39-1.645-1.713l1.645 1.713zm-4.989-1.614a.703.703 0 00.982.156c.588-.426 1.473-.579 2.362-.255m-3.344.099a.703.703 0 01.157-.982l-.157.982zm.157-.982c.99-.719 2.37-.911 3.668-.439l-3.668.439z" fill="url(#aopaint3_linear_84_3617)"/><path d="M15.816 10.525a.703.703 0 00-.42-.9c-2.028-.739-3.748-.79-4.974-.649a8.223 8.223 0 00-1.439.292 5.62 5.62 0 00-.553.2l-.004.003h-.002l.296.638-.297-.637a.703.703 0 00.591 1.276l.013-.006.067-.027c.063-.024.163-.06.297-.101.27-.082.673-.18 1.192-.24 1.035-.12 2.533-.083 4.332.572a.703.703 0 00.9-.42zm-6.8.222z" fill="url(#aopaint4_linear_84_3617)"/><path d="M25.596 16.78a.703.703 0 00.34-.934l-.637.297.637-.297v-.001l-.001-.002-.002-.004-.005-.01a2.24 2.24 0 00-.073-.14 5.66 5.66 0 00-.217-.36 8.225 8.225 0 00-.915-1.148c-.849-.896-2.2-1.962-4.226-2.7a.703.703 0 00-.481 1.321c1.798.655 2.97 1.59 3.686 2.346.359.38.605.715.758.95a4.205 4.205 0 01.197.333l.006.012c.165.35.582.501.933.338z" fill="url(#aopaint5_linear_84_3617)"/><path d="M40.365 44.325a4.725 4.725 0 01-5.548 2.02l-7.1-2.398a10.833 10.833 0 01-6.712-6.558l-1.257-3.452a.703.703 0 10-1.322.48l1.257 3.453a12.24 12.24 0 007.585 7.41l7.099 2.397a6.132 6.132 0 007.199-2.62l3.897-6.4-.6-.365.6.365a12.24 12.24 0 001.047-10.551l-3.962-10.888a4.775 4.775 0 00-6.12-2.853l-3.15 1.146a.703.703 0 00.482 1.322l3.149-1.147a3.368 3.368 0 014.317 2.013l3.963 10.888a10.833 10.833 0 01-.927 9.339l-3.897 6.4.6.365-.6-.366z" fill="url(#aopaint6_linear_84_3617)"/><path d="M29.28 41.405c.25.067.516-.01.693-.198 1.178-1.252 2.896-2.387 4.971-3.142l-.24-.661.24.66c2.076-.755 4.121-.99 5.829-.788a.703.703 0 00.711-1.013 6.809 6.809 0 00-8.413-3.346 6.809 6.809 0 00-4.294 7.972c.06.251.253.45.503.516zm.718-2.145a5.402 5.402 0 013.554-5.021l-.24-.661.24.66a5.402 5.402 0 015.95 1.563c-1.589.008-3.316.315-5.038.942-1.722.627-3.243 1.502-4.466 2.517zm3.314-5.682l-.002-.003.002.003z" fill="url(#aopaint7_linear_84_3617)"/><path d="M26.826 30.862c-.774.544-1.668.627-2.346.368a.703.703 0 00-.502 1.314c1.144.436 2.526.263 3.656-.53 1.13-.794 1.763-2.035 1.741-3.259a.703.703 0 10-1.406.025c.013.726-.369 1.539-1.143 2.082" fill="url(#aopaint8_linear_84_3617)"/><path d="M33.227 27.354c.77.951 2.052 1.496 3.428 1.377s2.546-.875 3.141-1.944a.703.703 0 00-1.228-.684c-.354.634-1.092 1.146-2.034 1.227-.942.081-1.757-.296-2.214-.86a.703.703 0 10-1.093.884z" fill="url(#aopaint9_linear_84_3617)"/><path d="M32.184 24.6a.703.703 0 00.902.42c1.798-.654 3.296-.69 4.33-.571.52.06.924.158 1.193.24a4.23 4.23 0 01.364.129l.013.005h-.001l-.001-.001.283-.609-.284.609.003.001a.703.703 0 00.591-1.276l-.297.637.297-.637h-.001l-.002-.001-.004-.002-.01-.005a1.838 1.838 0 00-.145-.06 5.588 5.588 0 00-.398-.136 8.217 8.217 0 00-1.44-.291c-1.225-.142-2.945-.09-4.972.647a.703.703 0 00-.42.902z" fill="url(#aopaint10_linear_84_3617)"/></g><defs><linearGradient id="aopaint0_linear_84_3617" x1=".752" y1="16.962" x2="32.569" y2="16.962" gradientUnits="userSpaceOnUse"><stop stop-color="#0CBAF1"/><stop offset="1" stop-color="#E95CE9"/></linearGradient><linearGradient id="aopaint1_linear_84_3617" x1="7.648" y1="22.49" x2="20.615" y2="22.49" gradientUnits="userSpaceOnUse"><stop stop-color="#0CBAF1"/><stop offset="1" stop-color="#E95CE9"/></linearGradient><linearGradient id="aopaint2_linear_84_3617" x1="7.726" y1="13.538" x2="14.234" y2="13.538" gradientUnits="userSpaceOnUse"><stop stop-color="#0CBAF1"/><stop offset="1" stop-color="#E95CE9"/></linearGradient><linearGradient id="aopaint3_linear_84_3617" x1="17.928" y1="17.252" x2="24.436" y2="17.252" gradientUnits="userSpaceOnUse"><stop stop-color="#0CBAF1"/><stop offset="1" stop-color="#E95CE9"/></linearGradient><linearGradient id="aopaint4_linear_84_3617" x1="8.017" y1="9.951" x2="15.858" y2="9.951" gradientUnits="userSpaceOnUse"><stop stop-color="#0CBAF1"/><stop offset="1" stop-color="#E95CE9"/></linearGradient><linearGradient id="aopaint5_linear_84_3617" x1="19.553" y1="14.143" x2="26.002" y2="14.143" gradientUnits="userSpaceOnUse"><stop stop-color="#0CBAF1"/><stop offset="1" stop-color="#E95CE9"/></linearGradient><linearGradient id="aopaint6_linear_84_3617" x1="18.384" y1="31.038" x2="47.248" y2="31.038" gradientUnits="userSpaceOnUse"><stop stop-color="#0CBAF1"/><stop offset="1" stop-color="#E95CE9"/></linearGradient><linearGradient id="aopaint7_linear_84_3617" x1="28.592" y1="36.967" x2="41.559" y2="36.967" gradientUnits="userSpaceOnUse"><stop stop-color="#0CBAF1"/><stop offset="1" stop-color="#E95CE9"/></linearGradient><linearGradient id="aopaint8_linear_84_3617" x1="23.526" y1="30.421" x2="29.376" y2="30.421" gradientUnits="userSpaceOnUse"><stop stop-color="#0CBAF1"/><stop offset="1" stop-color="#E95CE9"/></linearGradient><linearGradient id="aopaint9_linear_84_3617" x1="33.07" y1="27.244" x2="39.885" y2="27.244" gradientUnits="userSpaceOnUse"><stop stop-color="#0CBAF1"/><stop offset="1" stop-color="#E95CE9"/></linearGradient><linearGradient id="aopaint10_linear_84_3617" x1="32.142" y1="24.026" x2="39.983" y2="24.026" gradientUnits="userSpaceOnUse"><stop stop-color="#0CBAF1"/><stop offset="1" stop-color="#E95CE9"/></linearGradient></defs></svg><svg fill="none" viewBox="0 0 22 20" id="envelope" xmlns="http://www.w3.org/2000/svg"><path fill-rule="evenodd" clip-rule="evenodd" d="M15.659 0c3.33 0 5.84 2.717 5.84 6.32v6.868c0 1.844-.651 3.51-1.836 4.692-1.063 1.059-2.442 1.62-3.988 1.62H5.822c-1.543 0-2.921-.56-3.985-1.62C.652 16.698 0 15.032 0 13.188V6.32C0 2.717 2.51 0 5.84 0h9.819zm0 1.5H5.84C3.326 1.5 1.5 3.527 1.5 6.32v6.868c0 1.443.496 2.732 1.396 3.629C3.672 17.592 4.685 18 5.825 18h9.834c.002-.002.01 0 .016 0 1.14 0 2.153-.408 2.929-1.183.9-.897 1.396-2.186 1.396-3.629V6.32c0-2.793-1.826-4.82-4.341-4.82zm1.576 4.629a.75.75 0 01-.11 1.055l-4.443 3.612a3.042 3.042 0 01-3.799.006L4.398 7.186a.751.751 0 01.94-1.168L9.82 9.63a1.544 1.544 0 001.923-.004l4.436-3.606a.75.75 0 011.056.109z" fill="#fff"/></svg><svg fill="none" viewBox="0 0 48 48" id="events" xmlns="http://www.w3.org/2000/svg"><mask id="aqa" style="mask-type:luminance" maskUnits="userSpaceOnUse" x="0" y="0" width="48" height="48"><path d="M0 0h48v48H0V0z" fill="#fff"/></mask><g mask="url(#aqa)" fill-rule="evenodd" clip-rule="evenodd"><path d="M7.35 6.645a3.256 3.256 0 003.249 3.249.703.703 0 000-1.407 1.85 1.85 0 01-1.843-1.842V3.248A1.85 1.85 0 0110.6 1.406a1.85 1.85 0 011.845 1.842v1.698a.703.703 0 001.406 0V3.248C13.85 1.46 12.39 0 10.6 0a3.256 3.256 0 00-3.25 3.25v3.396z" fill="url(#aqpaint0_linear_84_3576)"/><path d="M16.505 6.645a3.256 3.256 0 003.248 3.249.703.703 0 000-1.407 1.85 1.85 0 01-1.842-1.842V3.248a1.85 1.85 0 011.842-1.842A1.85 1.85 0 0121.6 3.248v1.698a.703.703 0 101.406 0V3.248C23.005 1.46 21.545 0 19.753 0a3.256 3.256 0 00-3.248 3.25v3.396z" fill="url(#aqpaint1_linear_84_3576)"/><path d="M25.66 6.645a3.256 3.256 0 003.248 3.249.703.703 0 000-1.407 1.85 1.85 0 01-1.842-1.842V3.248a1.85 1.85 0 011.842-1.842 1.85 1.85 0 011.846 1.842v1.698a.703.703 0 101.406 0V3.248C32.16 1.46 30.7 0 28.908 0a3.256 3.256 0 00-3.249 3.25v3.396z" fill="url(#aqpaint2_linear_84_3576)"/><path d="M34.814 6.645c0 1.789 1.46 3.249 3.252 3.249a.703.703 0 000-1.407 1.85 1.85 0 01-1.846-1.842V3.248a1.85 1.85 0 011.846-1.842 1.85 1.85 0 011.842 1.842v1.698a.703.703 0 101.407 0V3.248A3.256 3.256 0 0038.065 0a3.257 3.257 0 00-3.25 3.25v3.396z" fill="url(#aqpaint3_linear_84_3576)"/><path d="M31.99 38.095a.703.703 0 00-.11-.988L15.055 23.612a.703.703 0 10-.88 1.097l16.827 13.495a.703.703 0 00.988-.109z" fill="url(#aqpaint4_linear_84_3576)"/><path d="M26.608 25.732a.703.703 0 00.989-.109l2.62-3.268a.703.703 0 00-1.097-.88l-2.62 3.269a.703.703 0 00.108.988z" fill="url(#aqpaint5_linear_84_3576)"/><path d="M21.555 26.701a.703.703 0 00.992-.067c.93-1.063 2.047-2.429 2.903-4.067a.703.703 0 10-1.247-.65c-.776 1.486-1.805 2.75-2.715 3.792a.703.703 0 00.067.992z" fill="url(#aqpaint6_linear_84_3576)"/><path d="M26.76 30.874c.312.23.752.163.982-.15.818-1.113 1.83-2.394 3.112-3.471a.703.703 0 10-.905-1.077c-1.413 1.188-2.505 2.58-3.34 3.715a.703.703 0 00.15.983z" fill="url(#aqpaint7_linear_84_3576)"/><path d="M30.013 33.485c.317.225.756.15.98-.166 1.105-1.555 2.703-3.43 5.597-3.569a.703.703 0 00-.067-1.404c-3.585.17-5.527 2.54-6.676 4.159a.703.703 0 00.166.98z" fill="url(#aqpaint8_linear_84_3576)"/><path d="M19.39 23.755a.703.703 0 00.963-.246c.43-.723 1.025-1.896.833-3.595a.703.703 0 00-1.398.158c.143 1.257-.282 2.109-.644 2.72a.703.703 0 00.245.963z" fill="url(#aqpaint9_linear_84_3576)"/><path d="M10.492 47.974c.277-.049.576-.162.879-.302a.69.69 0 00.043-.021l19.07-10.415a.703.703 0 00.103-1.166L16.348 24.648a.703.703 0 00-1.115.354L9.208 45.86a.703.703 0 00-.011.047c-.074.34-.12.664-.105.95.014.275.094.655.423.914.326.258.712.249.977.203zm.074-1.747l5.725-19.822 12.593 10.102-18.122 9.898a4.295 4.295 0 01-.247.103c.012-.08.028-.174.051-.281z" fill="url(#aqpaint10_linear_84_3576)"/><path d="M22.237 41.727a.703.703 0 00.109-.988l-7.723-9.636a.703.703 0 00-1.097.88l7.722 9.635a.703.703 0 00.989.11z" fill="url(#aqpaint11_linear_84_3576)"/><path d="M18.065 44.005a.703.703 0 00.108-.989l-5.14-6.41a.703.703 0 00-1.096.88l5.14 6.41a.703.703 0 00.988.109z" fill="url(#aqpaint12_linear_84_3576)"/><path d="M15.115 45.615a.703.703 0 00.109-.989l-3.314-4.132a.703.703 0 10-1.097.88l3.314 4.132a.703.703 0 00.988.109z" fill="url(#aqpaint13_linear_84_3576)"/><path d="M25.186 40.117a.703.703 0 00.11-.988l-4.03-5.028a.703.703 0 10-1.097.879l4.029 5.028a.703.703 0 00.988.11zm-6.104-7.616a.703.703 0 00.11-.989l-3.445-4.3a.703.703 0 10-1.097.88l3.444 4.3a.703.703 0 00.988.109z" fill="url(#aqpaint14_linear_84_3576)"/><path d="M2.412 41.07a1.13 1.13 0 001.129 1.128h7.66a.703.703 0 000-1.406H3.819V5.65h40.364v35.142H21.218a.703.703 0 000 1.406h23.241a1.13 1.13 0 001.129-1.128V5.372a1.13 1.13 0 00-1.129-1.128H3.541a1.13 1.13 0 00-1.129 1.128V41.07z" fill="url(#aqpaint15_linear_84_3576)"/><path d="M2.412 15.84c0 .388.315.703.703.703h19.14a.703.703 0 000-1.406H3.114a.703.703 0 00-.703.703zm22.384 0c0 .388.314.703.703.703h19.386a.703.703 0 000-1.406H25.499a.703.703 0 00-.703.703zm-22.384-3.3c0 .388.315.702.703.702h41.77a.703.703 0 000-1.406H3.115a.703.703 0 00-.703.703z" fill="url(#aqpaint16_linear_84_3576)"/></g><defs><linearGradient id="aqpaint0_linear_84_3576" x1="7.35" y1="4.946" x2="13.85" y2="4.946" gradientUnits="userSpaceOnUse"><stop stop-color="#0CBAF1"/><stop offset="1" stop-color="#E95CE9"/></linearGradient><linearGradient id="aqpaint1_linear_84_3576" x1="16.505" y1="4.946" x2="23.005" y2="4.946" gradientUnits="userSpaceOnUse"><stop stop-color="#0CBAF1"/><stop offset="1" stop-color="#E95CE9"/></linearGradient><linearGradient id="aqpaint2_linear_84_3576" x1="25.659" y1="4.946" x2="32.16" y2="4.946" gradientUnits="userSpaceOnUse"><stop stop-color="#0CBAF1"/><stop offset="1" stop-color="#E95CE9"/></linearGradient><linearGradient id="aqpaint3_linear_84_3576" x1="34.814" y1="4.946" x2="41.315" y2="4.946" gradientUnits="userSpaceOnUse"><stop stop-color="#0CBAF1"/><stop offset="1" stop-color="#E95CE9"/></linearGradient><linearGradient id="aqpaint4_linear_84_3576" x1="13.911" y1="30.908" x2="32.144" y2="30.908" gradientUnits="userSpaceOnUse"><stop stop-color="#0CBAF1"/><stop offset="1" stop-color="#E95CE9"/></linearGradient><linearGradient id="aqpaint5_linear_84_3576" x1="26.345" y1="23.549" x2="30.372" y2="23.549" gradientUnits="userSpaceOnUse"><stop stop-color="#0CBAF1"/><stop offset="1" stop-color="#E95CE9"/></linearGradient><linearGradient id="aqpaint6_linear_84_3576" x1="21.314" y1="24.207" x2="25.53" y2="24.207" gradientUnits="userSpaceOnUse"><stop stop-color="#0CBAF1"/><stop offset="1" stop-color="#E95CE9"/></linearGradient><linearGradient id="aqpaint7_linear_84_3576" x1="26.472" y1="28.511" x2="31.105" y2="28.511" gradientUnits="userSpaceOnUse"><stop stop-color="#0CBAF1"/><stop offset="1" stop-color="#E95CE9"/></linearGradient><linearGradient id="aqpaint8_linear_84_3576" x1="29.717" y1="30.98" x2="37.259" y2="30.98" gradientUnits="userSpaceOnUse"><stop stop-color="#0CBAF1"/><stop offset="1" stop-color="#E95CE9"/></linearGradient><linearGradient id="aqpaint9_linear_84_3576" x1="19.045" y1="21.572" x2="21.223" y2="21.572" gradientUnits="userSpaceOnUse"><stop stop-color="#0CBAF1"/><stop offset="1" stop-color="#E95CE9"/></linearGradient><linearGradient id="aqpaint10_linear_84_3576" x1="9.089" y1="36.246" x2="30.85" y2="36.246" gradientUnits="userSpaceOnUse"><stop stop-color="#0CBAF1"/><stop offset="1" stop-color="#E95CE9"/></linearGradient><linearGradient id="aqpaint11_linear_84_3576" x1="13.371" y1="36.361" x2="22.5" y2="36.361" gradientUnits="userSpaceOnUse"><stop stop-color="#0CBAF1"/><stop offset="1" stop-color="#E95CE9"/></linearGradient><linearGradient id="aqpaint12_linear_84_3576" x1="11.782" y1="40.251" x2="18.328" y2="40.251" gradientUnits="userSpaceOnUse"><stop stop-color="#0CBAF1"/><stop offset="1" stop-color="#E95CE9"/></linearGradient><linearGradient id="aqpaint13_linear_84_3576" x1="10.658" y1="43" x2="15.378" y2="43" gradientUnits="userSpaceOnUse"><stop stop-color="#0CBAF1"/><stop offset="1" stop-color="#E95CE9"/></linearGradient><linearGradient id="aqpaint14_linear_84_3576" x1="14.495" y1="33.61" x2="25.45" y2="33.61" gradientUnits="userSpaceOnUse"><stop stop-color="#0CBAF1"/><stop offset="1" stop-color="#E95CE9"/></linearGradient><linearGradient id="aqpaint15_linear_84_3576" x1="2.412" y1="23.221" x2="45.588" y2="23.221" gradientUnits="userSpaceOnUse"><stop stop-color="#0CBAF1"/><stop offset="1" stop-color="#E95CE9"/></linearGradient><linearGradient id="aqpaint16_linear_84_3576" x1="2.412" y1="14.19" x2="45.588" y2="14.19" gradientUnits="userSpaceOnUse"><stop stop-color="#0CBAF1"/><stop offset="1" stop-color="#E95CE9"/></linearGradient></defs></svg><svg fill="none" viewBox="0 0 69 45" id="expertise" xmlns="http://www.w3.org/2000/svg"><mask id="ara" style="mask-type:luminance" maskUnits="userSpaceOnUse" x="0" y="0" width="69" height="45"><path d="M0 0h69v44.849H0V0z" fill="#fff"/></mask><g mask="url(#ara)"><path d="M19.863 23.083c-3.392 0-6.157 2.408-6.157 5.365 0 2.958 2.76 5.367 6.157 5.367 3.397 0 6.157-2.407 6.157-5.367s-2.761-5.365-6.157-5.365zm0 .889c2.634 0 4.82 1.652 5.203 3.805-.193 2.315-2.453 4.148-5.203 4.148-2.75 0-5.016-1.833-5.204-4.148.39-2.152 2.57-3.805 5.204-3.805zm0 8.955c-2.42 0-4.462-1.399-5.074-3.293.926 1.62 2.853 2.733 5.074 2.733 2.221 0 4.148-1.116 5.074-2.733-.612 1.894-2.655 3.293-5.074 3.293zm28.678-9.844c-3.392 0-6.156 2.408-6.156 5.365 0 2.958 2.759 5.367 6.156 5.367 3.399 0 6.157-2.407 6.157-5.367s-2.766-5.365-6.157-5.365zm0 .889c2.634 0 4.821 1.652 5.204 3.805-.194 2.315-2.453 4.148-5.204 4.148-2.749 0-5.016-1.833-5.203-4.148.383-2.152 2.57-3.805 5.203-3.805zm0 8.955c-2.419 0-4.462-1.399-5.072-3.293.925 1.62 2.852 2.733 5.072 2.733 2.222 0 4.147-1.116 5.074-2.733-.613 1.894-2.654 3.293-5.074 3.293zM68.988 3.53v-.237a.416.416 0 00-.075-.261C68.341.141 65.85.328 65.822.33a.335.335 0 00-.17.062.335.335 0 00-.117.138L64.781 2.1a4.685 4.685 0 00-2.857-1.043H6.655a3.67 3.67 0 00-2.294.882L3.545.239a.347.347 0 00-.118-.14.353.353 0 00-.171-.063C3.229.036.609-.162.127 2.969A.44.44 0 000 3.294l.89 25.17c0 .045.01.088.024.13l4.734 13.725a.44.44 0 00.18.228c.182.442.453.822.812 1.139.647.565 1.523.849 2.613.849.265 0 .528-.017.791-.048a.36.36 0 00.231-.12.36.36 0 00.086-.247l-.16-3.643H24.83a.434.434 0 00.233-.066.427.427 0 00.164-.178l3.822-7.636h10.455a.4.4 0 00.077 0l3.825 7.641c.039.074.093.133.165.177.072.044.15.066.233.067h15.084l-.168 3.939a.348.348 0 00.084.246.36.36 0 00.23.122c.263.03.527.045.791.046 1.09 0 1.968-.284 2.613-.847a3.266 3.266 0 001.063-2.122l4.56-13.258a.435.435 0 00.026-.13l.875-24.799a.324.324 0 00.027-.148zM6.67 1.937h55.263c.455.01.894.1 1.315.272.421.17.799.41 1.133.72l-.63 1.32H5.473l-.714-1.48a2.79 2.79 0 011.91-.822v-.01zm53.458 9.953l-.132 3.046h-.792a62.116 62.116 0 00-.456-7.655.223.223 0 00-.18-.188c-12.283-2.13-21.206-.016-21.289 0a.214.214 0 00-.161.157c-.174.725-.293 1.46-.359 2.203h-4.366c-.114-1.345-.228-2.167-.228-2.177a.225.225 0 00-.182-.188c-12.281-2.13-21.207-.019-21.29 0a.214.214 0 00-.16.157c-.028.1-.664 2.47-.557 7.682h-.883L8.95 11.59a.356.356 0 00-.035-.137L5.807 4.965h57.604l-3.249 6.789a.388.388 0 00-.034.136zM47.064 9.656a.438.438 0 00-.16-.143.446.446 0 00-.21-.055h-9.496c.065-.658.168-1.311.308-1.958 1.14-.25 9.517-1.926 20.813 0 .29 2.47.438 4.947.44 7.434H45.954v-2.129l1.14-2.732a.433.433 0 00-.029-.417zm-25.539.419l1.14 2.733v2.13H10.422c-.094-4.485.38-6.88.508-7.436 1.14-.25 9.518-1.926 20.817 0 .036.296.118.987.2 1.956H21.938a.464.464 0 00-.207.058.43.43 0 00-.157.145.462.462 0 00-.072.31c.004.036.013.07.026.104h-.003zM2.996.739l.86 1.802a.447.447 0 00.228.48l.83 1.735 3.33 6.947.138 3.234H5.93a.45.45 0 00-.315.137.45.45 0 00-.13.318v5.624c.004.1.036.189.099.267.062.078.142.13.239.156.981.278 1.916.668 2.804 1.17l.438 10.065a6.424 6.424 0 01-2.737.547.439.439 0 00-.367.166L5.1 12.332a.363.363 0 00-.034-.14L.893 3.398v-.132A.416.416 0 00.84 3.07C1.154 1.05 2.492.776 3 .746L2.995.74zM9.93 32.161l-.39-8.986c1.957 1.4 2.812 3.133 2.543 5.155-.26 1.974-1.138 3.144-2.15 3.847l-.003-.016zM.957 5.191l3.435 7.24 1.081 26.664-3.697-10.73L.957 5.192zm8.68 38.618c-1.091.068-1.939-.15-2.509-.654a2.306 2.306 0 01-.62-.861.445.445 0 000-.264l-.206-.595-.038-.971h3.247l.126 3.345zm19.856-12.107l.328-.656a.332.332 0 00.032-.08l.01-.04h8.895l.024.063c.006.02.014.039.023.057l.329.655h-9.641zm.795-1.664a4.108 4.108 0 012.567-1.89 4.087 4.087 0 011.082-.112c1.569-.039 2.855.437 3.822 1.423.175.18.336.373.483.579h-7.954zm9.329.632c-.146-.382-1.505-3.63-5.678-3.522-3.054 0-4.346 2.163-4.77 3.126a3.577 3.577 0 00-.157.408l-4.458 8.898H6.744v-5.485a7.658 7.658 0 002.894-.736.412.412 0 00.167-.08c1.423-.744 2.814-2.15 3.17-4.815.426-3.188-1.626-5.237-3.605-6.439a.422.422 0 00-.155-.094 14.074 14.074 0 00-2.83-1.259v-4.847h16.75a.447.447 0 00.322-.134.442.442 0 00.134-.322v-2.653a.457.457 0 00-.034-.173l-.925-2.197h23.392l-.926 2.197a.459.459 0 00-.034.173v2.665a.449.449 0 00.134.322.452.452 0 00.322.133h14.491a.348.348 0 00.305.2.34.34 0 00.336-.2h1.599v4.836c-.847.27-1.661.618-2.442 1.041a.41.41 0 00-.185.1c-2.08 1.174-4.418 3.27-3.966 6.65.385 2.89 1.988 4.302 3.53 4.99.055.04.115.066.183.077.804.328 1.64.516 2.508.565v5.485H44.077l-4.46-8.91zm16.933-2.324c-.283-2.113.661-3.91 2.807-5.34l.1-.066-.41 9.465c-1.129-.667-2.207-1.874-2.497-4.06zm5.416 15.098c-.584.505-1.428.724-2.52.656l.157-3.644h2.736a.436.436 0 00.169-.036.451.451 0 00.276-.407v-6.376a.44.44 0 00-.29-.416.432.432 0 00-.177-.028 6.35 6.35 0 01-2.395-.398l.456-10.41c.779-.4 1.59-.714 2.434-.946a.44.44 0 00.238-.16.443.443 0 00.097-.27v-5.628a.453.453 0 00-.274-.418.45.45 0 00-.171-.038h-1.993l.128-2.944L66.08 1.024c.48.023 1.694.262 2.1 1.988a.45.45 0 00-.082.241l-.022.656-4.064 8.575a.372.372 0 00-.034.136L62.82 41.084l-.324.936a.445.445 0 00-.008.252.445.445 0 00.129.22c-.14.371-.357.689-.655.953h.002zm1.652-4.7l1.061-26.03 3.322-7.008-.8 22.651-3.582 10.387z" fill="url(#arpaint0_linear_9_176)"/></g><defs><linearGradient id="arpaint0_linear_9_176" x1="0" y1="22.434" x2="68.989" y2="22.434" gradientUnits="userSpaceOnUse"><stop stop-color="#0CBAF1"/><stop offset="1" stop-color="#E95CE9"/></linearGradient></defs></svg><svg fill="none" viewBox="0 0 46 46" id="facebook" xmlns="http://www.w3.org/2000/svg"><circle cx="23" cy="23" r="22.5" fill="#18181B" stroke="url(#aspaint0_linear_52_1557)"/><path d="M20.883 33.357v-9.124h-3.07v-3.555h3.07v-2.623c0-3.043 1.858-4.7 4.573-4.7 1.3 0 2.418.097 2.744.14v3.18l-1.883.002c-1.477 0-1.762.701-1.762 1.73v2.27h3.52l-.458 3.556h-3.062v9.124h-3.672z" fill="#fff"/><defs><linearGradient id="aspaint0_linear_52_1557" x1="0" y1="23" x2="46" y2="23" gradientUnits="userSpaceOnUse"><stop stop-color="#0CBAF1"/><stop offset="1" stop-color="#E95CE9"/></linearGradient></defs></svg><svg fill="none" viewBox="0 0 48 48" id="games" xmlns="http://www.w3.org/2000/svg"><mask id="ata" style="mask-type:luminance" maskUnits="userSpaceOnUse" x="0" y="0" width="48" height="48"><path d="M0 0h48v48H0V0z" fill="#fff"/></mask><g mask="url(#ata)" fill-rule="evenodd" clip-rule="evenodd"><path d="M26.066 27.999c-1.377.003-2.755.003-4.132 0a.703.703 0 10-.003 1.406c1.38.003 2.759.003 4.138 0A.703.703 0 1026.066 28z" fill="url(#atpaint0_linear_84_3546)"/><path d="M33.983 37.289a.703.703 0 00-.23-.967 8.252 8.252 0 01-3.778-5.377.703.703 0 10-1.377.285 9.659 9.659 0 004.418 6.29c.331.203.764.1.968-.231z" fill="url(#atpaint1_linear_84_3546)"/><path d="M7.615 38.686c5.338 1.289 10.679-2.098 11.788-7.456a.703.703 0 10-1.377-.285c-.948 4.579-5.515 7.477-10.081 6.374h-.003l-.173-.042c-4.287-1.035-7.025-5.24-6.224-9.575.679-3.665 1.6-7.372 2.694-11.115a8.267 8.267 0 017.66-5.933 351.418 351.418 0 0124.203 0 8.267 8.267 0 017.659 5.933c1.094 3.743 2.015 7.45 2.694 11.115.801 4.334-1.937 8.54-6.224 9.575l-.086.02h-.002l-.087.022m-32.44 1.367l-.176-.042h-.001c-5.01-1.21-8.214-6.126-7.276-11.197.688-3.722 1.622-7.476 2.727-11.254a9.674 9.674 0 018.96-6.944c8.1-.28 16.2-.28 24.3 0a9.674 9.674 0 018.96 6.944c1.105 3.778 2.039 7.532 2.727 11.254.939 5.07-2.265 9.987-7.276 11.197l-.089.02-.086.022a9.675 9.675 0 01-4.598-.007.703.703 0 11.336-1.365 8.267 8.267 0 003.931.005" fill="url(#atpaint2_linear_84_3546)"/><path d="M18.814 30.386a2.527 2.527 0 110-5.055 2.527 2.527 0 010 5.055zm-3.934-2.528a3.934 3.934 0 107.868 0 3.934 3.934 0 00-7.868 0z" fill="url(#atpaint3_linear_84_3546)"/><path d="M29.186 30.386a2.527 2.527 0 110-5.055 2.527 2.527 0 010 5.055zm-3.933-2.528a3.934 3.934 0 107.867 0 3.934 3.934 0 00-7.867 0z" fill="url(#atpaint4_linear_84_3546)"/><path d="M10.262 26.767h.042c1.528-.001 2.77-1.22 2.81-2.743l.004-.134.134-.004a2.815 2.815 0 002.743-2.81v-.042c0-1.528-1.22-2.77-2.743-2.811l-.134-.004-.004-.134a2.815 2.815 0 00-2.81-2.743h-.042a2.816 2.816 0 00-2.81 2.743l-.004.134-.134.004a2.815 2.815 0 00-2.743 2.81v.043c0 1.527 1.22 2.769 2.743 2.81l.134.004.003.134a2.816 2.816 0 002.811 2.743zm.041-1.407h-.04a1.41 1.41 0 01-1.406-1.374m1.446 1.374a1.41 1.41 0 001.406-1.374l-1.406 1.374zm-1.446-1.374c-.007-.266-.014-.532-.019-.798a.703.703 0 00-.689-.689c-.266-.005-.531-.011-.797-.018m4.357 1.505l.018-.798-.018.798zm1.505-1.506c-.266.008-.532.014-.798.02a.703.703 0 00-.689.688m1.487-.707a1.409 1.409 0 001.375-1.406v-.04m-8.612.04v-.04-.001a1.41 1.41 0 011.375-1.405c.265-.008.531-.014.797-.019a.703.703 0 00.69-.69c.004-.265.01-.53.018-.797m-2.88 2.952zm0 0a1.41 1.41 0 001.375 1.405l-1.375-1.405zm8.612-.041a1.41 1.41 0 00-1.375-1.405l1.375 1.405zm-1.375-1.405a106.31 106.31 0 00-.797-.019.703.703 0 01-.69-.689l-.018-.798m-2.852 0a1.41 1.41 0 011.406-1.374h.04a1.41 1.41 0 011.406 1.374" fill="url(#atpaint5_linear_84_3546)"/><path d="M40.457 19.858a1.307 1.307 0 11-1.848-1.849 1.307 1.307 0 011.848 1.85zm-2.843.995a2.713 2.713 0 103.838-3.837 2.713 2.713 0 00-3.838 3.837z" fill="url(#atpaint6_linear_84_3546)"/><path d="M36.216 24.1a1.307 1.307 0 11-1.848-1.85 1.307 1.307 0 011.848 1.85zm-2.843.994a2.713 2.713 0 103.838-3.837 2.713 2.713 0 00-3.837 3.837z" fill="url(#atpaint7_linear_84_3546)"/><path d="M20.03 19.758a2 2 0 002 2h4.16a2 2 0 100-4h-4.16a2 2 0 00-2 2zm2 .594a.594.594 0 010-1.188h4.16a.594.594 0 110 1.188h-4.16z" fill="url(#atpaint8_linear_84_3546)"/><path d="M16.446 14.434a.703.703 0 00-.29-.951 2.472 2.472 0 01-1.298-1.962 19.953 19.953 0 01-.078-1.642.703.703 0 00-1.407.007c.003.587.033 1.174.084 1.759v.002a3.878 3.878 0 002.037 3.077.703.703 0 00.952-.29z" fill="url(#atpaint9_linear_84_3546)"/><path d="M30.79 13.767c-4.06.158-8.12.175-12.18.048a.703.703 0 00-.043 1.406c4.093.128 8.185.11 12.277-.05m2.298-3.65a2.46 2.46 0 01-2.353 2.246m2.353-2.246c.048-.549.076-1.097.078-1.642a.703.703 0 111.407.007 21.416 21.416 0 01-.084 1.759v.001a3.867 3.867 0 01-3.699 3.526" fill="url(#atpaint10_linear_84_3546)"/></g><defs><linearGradient id="atpaint0_linear_84_3546" x1="21.23" y1="28.703" x2="26.77" y2="28.703" gradientUnits="userSpaceOnUse"><stop stop-color="#0CBAF1"/><stop offset="1" stop-color="#E95CE9"/></linearGradient><linearGradient id="atpaint1_linear_84_3546" x1="28.583" y1="34.004" x2="34.088" y2="34.004" gradientUnits="userSpaceOnUse"><stop stop-color="#0CBAF1"/><stop offset="1" stop-color="#E95CE9"/></linearGradient><linearGradient id="atpaint2_linear_84_3546" x1="0" y1="24" x2="48" y2="24" gradientUnits="userSpaceOnUse"><stop stop-color="#0CBAF1"/><stop offset="1" stop-color="#E95CE9"/></linearGradient><linearGradient id="atpaint3_linear_84_3546" x1="14.88" y1="27.858" x2="22.748" y2="27.858" gradientUnits="userSpaceOnUse"><stop stop-color="#0CBAF1"/><stop offset="1" stop-color="#E95CE9"/></linearGradient><linearGradient id="atpaint4_linear_84_3546" x1="25.253" y1="27.858" x2="33.12" y2="27.858" gradientUnits="userSpaceOnUse"><stop stop-color="#0CBAF1"/><stop offset="1" stop-color="#E95CE9"/></linearGradient><linearGradient id="atpaint5_linear_84_3546" x1="4.571" y1="21.055" x2="15.995" y2="21.055" gradientUnits="userSpaceOnUse"><stop stop-color="#0CBAF1"/><stop offset="1" stop-color="#E95CE9"/></linearGradient><linearGradient id="atpaint6_linear_84_3546" x1="36.819" y1="18.934" x2="42.246" y2="18.934" gradientUnits="userSpaceOnUse"><stop stop-color="#0CBAF1"/><stop offset="1" stop-color="#E95CE9"/></linearGradient><linearGradient id="atpaint7_linear_84_3546" x1="32.579" y1="23.175" x2="38.005" y2="23.175" gradientUnits="userSpaceOnUse"><stop stop-color="#0CBAF1"/><stop offset="1" stop-color="#E95CE9"/></linearGradient><linearGradient id="atpaint8_linear_84_3546" x1="20.029" y1="19.758" x2="28.19" y2="19.758" gradientUnits="userSpaceOnUse"><stop stop-color="#0CBAF1"/><stop offset="1" stop-color="#E95CE9"/></linearGradient><linearGradient id="atpaint9_linear_84_3546" x1="13.373" y1="11.993" x2="16.528" y2="11.993" gradientUnits="userSpaceOnUse"><stop stop-color="#0CBAF1"/><stop offset="1" stop-color="#E95CE9"/></linearGradient><linearGradient id="atpaint10_linear_84_3546" x1="17.886" y1="12.243" x2="34.627" y2="12.243" gradientUnits="userSpaceOnUse"><stop stop-color="#0CBAF1"/><stop offset="1" stop-color="#E95CE9"/></linearGradient></defs></svg><svg fill="none" viewBox="0 0 46 46" id="git" xmlns="http://www.w3.org/2000/svg"><circle cx="23" cy="23" r="22.5" fill="#18181B" stroke="url(#aupaint0_linear_52_1569)"/><path fill-rule="evenodd" clip-rule="evenodd" d="M24.001 11.871a10.62 10.62 0 00-10.646 10.646c0 4.701 3.061 8.694 7.275 10.113.532.089.71-.222.71-.532v-1.819c-2.972.665-3.593-1.42-3.593-1.42-.488-1.241-1.198-1.552-1.198-1.552-.976-.665.089-.665.089-.665 1.064.088 1.641 1.109 1.641 1.109.931 1.64 2.484 1.153 3.105.887.089-.71.355-1.153.665-1.42-2.35-.266-4.834-1.197-4.834-5.278 0-1.153.399-2.13 1.108-2.839-.088-.266-.488-1.33.09-2.839 0 0 .886-.266 2.927 1.11A10.689 10.689 0 0124 17.015c.887 0 1.819.134 2.661.355 2.04-1.375 2.928-1.109 2.928-1.109.576 1.464.222 2.529.089 2.84.665.753 1.109 1.685 1.109 2.838 0 4.08-2.484 4.968-4.88 5.234.4.31.71.976.71 1.952v2.927c0 .266.178.621.754.533a10.593 10.593 0 007.275-10.07A10.62 10.62 0 0024 11.872z" fill="#fff"/><defs><linearGradient id="aupaint0_linear_52_1569" x1="0" y1="23" x2="46" y2="23" gradientUnits="userSpaceOnUse"><stop stop-color="#0CBAF1"/><stop offset="1" stop-color="#E95CE9"/></linearGradient></defs></svg><svg fill="none" viewBox="0 0 46 46" id="instagram" xmlns="http://www.w3.org/2000/svg"><circle cx="23" cy="23" r="22.5" fill="#18181B" stroke="url(#avpaint0_linear_52_1562)"/><path d="M22.996 13.876c2.972 0 3.324.012 4.497.065a6.173 6.173 0 012.067.383 3.687 3.687 0 012.113 2.113c.245.662.374 1.36.383 2.066.053 1.174.064 1.526.064 4.498 0 2.971-.01 3.323-.064 4.497a6.177 6.177 0 01-.383 2.067 3.685 3.685 0 01-2.113 2.112 6.173 6.173 0 01-2.067.383c-1.173.053-1.525.065-4.497.065s-3.324-.011-4.497-.065a6.174 6.174 0 01-2.067-.383 3.687 3.687 0 01-2.112-2.112 6.174 6.174 0 01-.383-2.067c-.053-1.174-.065-1.526-.065-4.497 0-2.972.011-3.324.065-4.498a6.174 6.174 0 01.383-2.066 3.685 3.685 0 012.112-2.113 6.174 6.174 0 012.067-.383c1.174-.053 1.526-.065 4.497-.065zm0-2.005c-3.02 0-3.401.013-4.588.067a8.168 8.168 0 00-2.703.517 5.451 5.451 0 00-1.97 1.284 5.45 5.45 0 00-1.285 1.971 8.173 8.173 0 00-.517 2.703c-.053 1.186-.066 1.566-.066 4.587 0 3.02.013 3.401.067 4.588.018.924.193 1.838.517 2.703a5.45 5.45 0 001.284 1.971 5.45 5.45 0 001.971 1.284c.865.324 1.78.5 2.703.517 1.187.053 1.566.067 4.588.067 3.023 0 3.401-.013 4.589-.067a8.168 8.168 0 002.702-.517 5.697 5.697 0 003.254-3.256c.324-.865.5-1.779.517-2.703.053-1.186.066-1.566.066-4.587 0-3.02-.013-3.401-.066-4.588a8.171 8.171 0 00-.518-2.703 5.452 5.452 0 00-1.284-1.97 5.453 5.453 0 00-1.97-1.285 8.173 8.173 0 00-2.703-.517c-1.186-.053-1.567-.066-4.588-.066z" fill="#fff"/><path d="M23 17.285a5.715 5.715 0 100 11.43 5.715 5.715 0 000-11.43zm0 9.425a3.71 3.71 0 110-7.42 3.71 3.71 0 010 7.42zM28.937 18.396a1.335 1.335 0 100-2.671 1.335 1.335 0 000 2.67z" fill="#fff"/><defs><linearGradient id="avpaint0_linear_52_1562" x1="0" y1="23" x2="46" y2="23" gradientUnits="userSpaceOnUse"><stop stop-color="#0CBAF1"/><stop offset="1" stop-color="#E95CE9"/></linearGradient></defs></svg><svg fill="none" viewBox="0 0 875 760" id="light-main-decor" xmlns="http://www.w3.org/2000/svg"><g filter="url(#awfilter0_f_7_1848)"><path d="M535.783 246.846C675.24 246.846 777 153.72 777 263.57 777 373.419 411.438 550 271.981 550s0-176.581 0-286.43c0-109.85 124.345-16.724 263.802-16.724z" fill="url(#awpaint0_linear_7_1848)" fill-opacity=".8"/></g><defs><linearGradient id="awpaint0_linear_7_1848" x1="241.144" y1="550" x2="272.567" y2="200.973" gradientUnits="userSpaceOnUse"><stop stop-color="#1CC4F9"/><stop offset="1" stop-color="#FE69FE"/></linearGradient><filter id="awfilter0_f_7_1848" x="0" y="0" width="987" height="760" filterUnits="userSpaceOnUse" color-interpolation-filters="sRGB"><feFlood flood-opacity="0" result="BackgroundImageFix"/><feBlend in="SourceGraphic" in2="BackgroundImageFix" result="shape"/><feGaussianBlur stdDeviation="105" result="effect1_foregroundBlur_7_1848"/></filter></defs></svg><svg fill="none" viewBox="0 0 134 1" id="line" xmlns="http://www.w3.org/2000/svg"><defs><linearGradient id="axa" x1="0" y1="1" x2="134" y2="1" gradientUnits="userSpaceOnUse"><stop stop-color="#0CBAF1"/><stop offset="1" stop-color="#E95CE9"/></linearGradient></defs><path stroke="url(#axa)" d="M0 .5h134"/></svg><svg fill="none" viewBox="0 0 15 17" id="location" xmlns="http://www.w3.org/2000/svg"><path fill-rule="evenodd" clip-rule="evenodd" d="M7.208.666c3.79 0 6.875 3.108 6.875 6.928 0 4.695-5.38 9.322-6.875 9.322S.333 12.289.333 7.594c0-3.82 3.084-6.928 6.875-6.928zm0 1.25c-3.102 0-5.625 2.548-5.625 5.678 0 3.982 4.687 7.862 5.625 8.069.938-.208 5.625-4.088 5.625-8.07 0-3.13-2.523-5.677-5.625-5.677zm0 2.917a2.712 2.712 0 012.71 2.709 2.71 2.71 0 01-2.71 2.707A2.71 2.71 0 014.5 7.542a2.712 2.712 0 012.709-2.71zm0 1.25a1.46 1.46 0 101.458 1.46 1.46 1.46 0 00-1.457-1.46z" fill="#B0B0B2"/></svg><svg fill="none" viewBox="0 0 19 18" id="phone" xmlns="http://www.w3.org/2000/svg"><path fill-rule="evenodd" clip-rule="evenodd" d="M4.548.666c.93.013 1.594.71 2.433 1.593.208.217.432.455.683.705 1.216 1.217.87 2.21.59 3.006-.303.869-.565 1.619 1.006 3.19 1.572 1.572 2.321 1.31 3.19 1.004.797-.278 1.787-.627 3.005.59.248.248.481.47.698.675.886.843 1.586 1.51 1.598 2.442.009.795-.475 1.607-1.668 2.8l-.528-.358.447.436c-.264.27-.967.992-2.342 1h-.025c-2.077 0-4.785-1.652-8.048-4.915C2.31 9.558.655 6.842.667 4.761c.008-1.375.728-2.079 1-2.343l.022-.025.056-.057C2.941 1.141 3.763.65 4.548.666zm-.016 1.25h-.007c-.374 0-.942.375-1.735 1.145l-.159.157h.002l-.037.039-.056.055c-.201.196-.619.604-.623 1.456-.007 1.193.778 3.407 4.553 7.182 3.758 3.757 5.969 4.55 7.165 4.55h.017c.853-.005 1.26-.423 1.455-.623.06-.061.108-.107.142-.135.83-.836 1.256-1.456 1.251-1.856-.005-.406-.51-.886-1.21-1.552-.222-.21-.464-.442-.719-.697-.661-.659-.987-.546-1.708-.293-.996.35-2.36.828-4.486-1.3-2.127-2.126-1.65-3.49-1.302-4.487.251-.72.366-1.047-.295-1.709-.258-.258-.49-.503-.705-.728-.661-.695-1.139-1.198-1.543-1.204zm7.174 1.715a4.294 4.294 0 013.41 3.41.625.625 0 11-1.226.24 3.05 3.05 0 00-2.423-2.423.624.624 0 11.239-1.227zm-.05-2.96a7.226 7.226 0 016.418 6.411.625.625 0 01-1.242.14 5.985 5.985 0 00-5.315-5.31.625.625 0 01-.551-.69.619.619 0 01.69-.55z" fill="#B0B0B2"/></svg><svg viewBox="0 0 28 28" id="play" xmlns="http://www.w3.org/2000/svg"><g filter="url(#bafilter0_b_11_242)"><rect x=".583" y=".583" width="26.833" height="26.833" rx="13.417" stroke="#fff" stroke-width="1.167"/><path d="M19.688 13.266a.834.834 0 010 1.468l-7.875 4.401c-.584.326-1.313-.081-1.313-.733V9.598c0-.652.73-1.06 1.313-.733l7.874 4.401z" fill="#fff"/></g><defs><filter id="bafilter0_b_11_242" x="-6.222" y="-6.222" width="40.444" height="40.444" filterUnits="userSpaceOnUse" color-interpolation-filters="sRGB"><feFlood flood-opacity="0" result="BackgroundImageFix"/><feGaussianBlur in="BackgroundImageFix" stdDeviation="3.111"/><feComposite in2="SourceAlpha" operator="in" result="effect1_backgroundBlur_11_242"/><feBlend in="SourceGraphic" in2="effect1_backgroundBlur_11_242" result="shape"/></filter></defs></svg><svg fill="none" viewBox="0 0 6 9" id="right" xmlns="http://www.w3.org/2000/svg"><path d="M5.531 4.5L1.031 9l-.806-.806L3.938 4.5.244.806 1.05 0l4.481 4.5z" fill="#fff"/></svg><svg fill="none" viewBox="0 0 14 14" id="send" xmlns="http://www.w3.org/2000/svg"><path d="M12.957.388A1.289 1.289 0 0011.67.052L.939 3.173a1.28 1.28 0 00-.923 1.014c-.094.5.236 1.136.669 1.402L4.04 7.65a.87.87 0 001.073-.129l3.842-3.866a.49.49 0 01.707 0 .509.509 0 010 .712L5.813 8.234a.882.882 0 00-.128 1.08l2.05 3.389c.24.402.653.63 1.107.63.053 0 .113 0 .167-.006a1.3 1.3 0 001.087-.927l3.181-10.717a1.31 1.31 0 00-.32-1.295z" fill="#fff"/></svg><svg fill="none" viewBox="0 0 60 64" id="servise" xmlns="http://www.w3.org/2000/svg"><path opacity=".86" d="M35.57 44.347a.306.306 0 01.034.243.322.322 0 01-.152.194 54.796 54.796 0 01-9.445 4.239c1.533 1.717.957 9.936.468 14.695a.305.305 0 01-.101.202.316.316 0 01-.212.08h-.03a.318.318 0 01-.29-.354c1.338-13.06-.284-14.217-.398-14.289a.304.304 0 01-.186-.094 39.282 39.282 0 01-5.514 1.413c-.462.1-.93.152-1.404.154-1.55 0-2.942-.571-3.744-1.597-.753-.963-1.343-2.723.037-5.687-.545-.437-1.784-1.73-.812-3.748a.309.309 0 01.117-.13.306.306 0 01.167-.048h5.212c.04.004.077.014.113.031a.31.31 0 01.176.283.313.313 0 01-.289.313h-5.001a2.276 2.276 0 00-.202 1.223 2.293 2.293 0 001.078 1.707.308.308 0 01.14.18.326.326 0 01-.02.229c-1.095 2.224-1.17 4.042-.219 5.249.892 1.139 2.674 1.616 4.54 1.213.09-.015 7.263-1.14 15.503-5.828a.312.312 0 01.354.03c.034.027.06.06.08.097zm15.033-1.286c-.556 3.7 1.92 10.29 5.888 15.67a.322.322 0 01.058.233.306.306 0 01-.124.205.31.31 0 01-.347.016.335.335 0 01-.091-.082c-4.123-5.588-6.593-12.224-6.004-16.137.19-1.268 1.237-3.614 2.249-5.883.7-1.568 1.424-3.189 1.811-4.343a.078.078 0 010-.027c.06-.133.116-.269.172-.405h-4.764a.304.304 0 01-.044.2c-.389.648-.83 1.257-1.327 1.828-.112.437-.742 2.675-2.133 3.38a1.914 1.914 0 01-.891.218 2.28 2.28 0 01-.906-.2c-1.236-.528-1.11-1.8-.876-2.405a.306.306 0 01.07-.094.309.309 0 01.33-.062.31.31 0 01.168.158.318.318 0 01.017.23c-.047.118-.428 1.174.534 1.588.199.1.41.149.632.149.223 0 .434-.05.633-.15 1.257-.635 1.818-3.009 1.824-3.033a.3.3 0 01.064-.129c.46-.527.874-1.089 1.242-1.684h-4.976a.261.261 0 01-.08-.01 5.54 5.54 0 01-2.532-1.593.307.307 0 01-.219.099h-1.358c-.937 1.565-2.056 2.624-3.357 2.624h-.083c-.438.26-2.409 1.39-4.285 1.39-.134 0-.27 0-.403-.019a2.597 2.597 0 01-1.056.24c-.073 0-.146-.004-.219-.015l-20.111-1.08a.317.317 0 01.06.052c.746.983 2.93 1.049 3.709.989a.312.312 0 01.324.22.303.303 0 01.01.14c-.089.611-.219 2.376.194 3.17a.329.329 0 01.022.24.313.313 0 01-.154.184.313.313 0 01-.308-.008.312.312 0 01-.117-.12c-.466-.876-.377-2.463-.304-3.185-.876.015-2.993-.083-3.878-1.251a.307.307 0 01-.06-.231.306.306 0 01.121-.207s.016 0 .022-.01l-3.843-.208c-.105 0-2.67-.072-2.921-1.68C.66 31.48.472 28.9.46 28.67c-.501-4.82-.593-9.647-.278-14.483.066-1.715 1.583-2.272 2.129-2.338l.319-.057c.26-.365 1.14-1.331 3.338-1.653.072 0 4.519-.604 11.242-.923C21.292 3.108 30.041-.258 36.148.015c8.203.37 15.208 4.375 18.786 10.717l.909-.08a1.95 1.95 0 01.3-1.383c.284-.374.73-.57 1.313-.586h.064c2.067 0 2.227 2.68 2.345 4.642.246 4.067.156 7.298-.271 9.874-.607 3.68-1.599 6.452-4.557 8.748-.133.34-.272.676-.416 1.005-.396 1.183-1.095 2.74-1.827 4.387-.984 2.23-2.014 4.537-2.191 5.722zm6.006-25.636l-7.844.827a1.263 1.263 0 01-.83.188l-1.532.057a25.95 25.95 0 01-3.178 9.337 2.576 2.576 0 001.631.973c.877.186 3.66.219 5.68.219a.306.306 0 01.018-.177c.633-1.551.743-2.916.303-3.744a1.57 1.57 0 00-.476-.548 1.574 1.574 0 00-.67-.28c-2.862-.612-3.589 2.006-3.617 2.118a.3.3 0 01-.144.201.31.31 0 01-.245.036.31.31 0 01-.233-.274.313.313 0 01.014-.125c0-.033.912-3.305 4.357-2.57a2.196 2.196 0 01.911.399 2.211 2.211 0 01.648.754c.53.997.438 2.493-.252 4.214h1.548c.294-.136 1.971-1.02 3.4-3.967.082-.482.69-4.608.511-7.638zm-8.683.387h.034c.35.018.455-.063.466-.085v-3.803c-5.46-3.026-11.777-3.863-14.7-4.082a3.223 3.223 0 011.132 2.049c.686 5.122.739 10.25.16 15.385-.39 3.37-1.252 5.686-2.564 6.894 1.723-.22 3.462-1.297 3.481-1.312h.024c2.164-1.13 2.41-4.64 2.41-4.674l.438-7.355c.05-2.65 2.541-2.76 2.566-2.76l6.553-.257zm9.99-1.776l-.321-4.882-11.652.876c1.016.42 2.002.9 2.96 1.439a.308.308 0 01.16.273v3.85l7.816-.825c1.038-.16 1.038-.724 1.038-.73zM36.12.643c-.375-.015-.76-.02-1.152 0-2.166.427-6.997 2.067-11.556 8.399 2.354-.028 4.859 0 7.445.079.055 0 .112 0 .173.015.3-.026.599-.021.898.013a.31.31 0 01.118-.022c4.296.153 8.47.946 12.522 2.38l9.66-.726C50.722 4.774 43.991.998 36.12.643zM18 9.186c1.569-.067 3.253-.118 5.025-.144 3.21-4.534 6.551-6.701 8.811-7.73.497-.218.962-.404 1.39-.55-5.412.665-11.8 3.63-15.225 8.424zM3.727 11.611c1.885-.299 5.42-.802 9.197-1.02 4.912-.287 12.131-.438 12.565-.438a3.648 3.648 0 011.465.18 3.676 3.676 0 011.274.745c1.787 1.507 2.694 4.547 2.694 9.035 0 4.922-.54 8.56-1.603 10.822-.453.962-.915 1.474-1.257 1.75l2.435.118c1.018-.942 1.667-3.732 1.833-4.753 1.338-8.245.248-16.487.237-16.567-.165-1.354-1.148-1.654-1.547-1.72a.312.312 0 01-.066 0h-.098a164.66 164.66 0 00-24.797.998 5.252 5.252 0 00-2.332.85zm0 19.904l2.378-2.143a.302.302 0 01.219-.082l12.228.276a.349.349 0 01.122.028 45.738 45.738 0 015.122 2.776H27.4c.279-.127 2.885-1.592 2.885-12.248 0-5.347-1.343-7.604-2.468-8.554-1.125-.949-2.245-.783-2.255-.78h-.046c-.075 0-7.534.142-12.561.437-3.537.216-7.051.63-10.542 1.242H2.39c-.013 0-1.521.219-1.579 1.75a85.175 85.175 0 00.287 14.4.088.088 0 010 .035c0 .103.092 2.727 2.628 2.87v-.007zm14.744-1.312l-12.044-.274-1.824 1.634 18.107.864c-1.84-1.11-3.873-2.058-4.248-2.227l.009.003zm12.827 4.006c.155-.077.301-.167.438-.27.93-.697 2.14-2.428 2.64-6.737a62.081 62.081 0 00-.156-15.207c-.219-1.287-.983-1.85-1.695-2.089a2.626 2.626 0 01.657 1.498c0 .079 1.112 8.41-.239 16.749-.028.164-.675 4.031-2.148 5.217a.315.315 0 01-.197.07h-.016L3.818 32.15h-.157c.393.876 2.233.946 2.255.946l24.341 1.313h.042c.35.03.68-.036.99-.202l.008.002zM42.77 18.631l-1.38.048c-.079 0-1.92.1-1.96 2.156l-.449 7.38c0 .126-.174 2.584-1.532 4.21 2.8-1.91 4.717-10.116 5.312-13.797l.009.003zm-1.943 11.552c3.789-4.558 4.745-10.208 4.937-11.658l-2.361.085c-.139.858-1.255 7.47-3.431 11.573h.855zm3.032 1.505h10.5c3.035-2.219 4.021-4.932 4.627-8.585.417-2.53.503-5.715.262-9.735-.134-2.216-.357-4.05-1.723-4.05h-.04a1.005 1.005 0 00-.458.07 1.011 1.011 0 00-.38.266 1.34 1.34 0 00-.174.956l1.38-.105a.302.302 0 01.23.077.307.307 0 01.107.219l.355 5.205c0 .048.035 1.012-1.314 1.334.206 3.28-.479 7.675-.51 7.874a.304.304 0 01-.026.085c-1.678 3.5-3.723 4.313-3.813 4.346a.35.35 0 01-.105.02c-.094 0-.937.01-2.054.01-2.056 0-5.036-.037-6.002-.24a3.321 3.321 0 01-1.846-1.018 20.592 20.592 0 01-1.27 1.807 4.877 4.877 0 002.254 1.457v.007z" fill="url(#bdpaint0_linear_9_197)"/><defs><linearGradient id="bdpaint0_linear_9_197" x1="0" y1="32" x2="60" y2="32" gradientUnits="userSpaceOnUse"><stop stop-color="#0CBAF1"/><stop offset="1" stop-color="#E95CE9"/></linearGradient></defs></svg><svg fill="none" viewBox="0 0 11 21" id="share-facebook" xmlns="http://www.w3.org/2000/svg"><path d="M3.428 20.13v-9.123H.358V7.45h3.07V4.83c0-3.043 1.858-4.7 4.573-4.7 1.3 0 2.418.097 2.744.14v3.18l-1.883.001c-1.477 0-1.762.702-1.762 1.731v2.27h3.52l-.458 3.556H7.1v9.124H3.428z" fill="#fff"/></svg><svg fill="none" viewBox="0 0 23 23" id="share-instagram" xmlns="http://www.w3.org/2000/svg"><path d="M11.873 2.005c2.972 0 3.324.011 4.497.065a6.174 6.174 0 012.067.383 3.685 3.685 0 012.113 2.113c.244.662.374 1.36.383 2.066.053 1.174.064 1.526.064 4.498 0 2.971-.01 3.323-.064 4.497a6.174 6.174 0 01-.383 2.067 3.687 3.687 0 01-2.113 2.112 6.174 6.174 0 01-2.067.383c-1.173.053-1.525.065-4.497.065s-3.324-.011-4.497-.065a6.174 6.174 0 01-2.067-.383 3.687 3.687 0 01-2.112-2.112 6.174 6.174 0 01-.383-2.067c-.053-1.174-.065-1.526-.065-4.497 0-2.972.011-3.324.065-4.498a6.174 6.174 0 01.383-2.066 3.685 3.685 0 012.112-2.113 6.174 6.174 0 012.067-.383c1.174-.053 1.526-.065 4.497-.065zm0-2.005c-3.02 0-3.401.013-4.588.067a8.17 8.17 0 00-2.703.517 5.452 5.452 0 00-1.97 1.284A5.452 5.452 0 001.327 3.84 8.17 8.17 0 00.81 6.542C.757 7.728.744 8.108.744 11.129c0 3.02.013 3.401.067 4.588a8.17 8.17 0 00.517 2.703c.28.743.718 1.415 1.284 1.971a5.45 5.45 0 001.971 1.284c.865.324 1.78.499 2.703.517 1.187.053 1.566.067 4.588.067 3.023 0 3.401-.013 4.589-.067a8.168 8.168 0 002.702-.517 5.696 5.696 0 003.254-3.256c.324-.865.5-1.779.517-2.703.053-1.186.066-1.566.066-4.587 0-3.02-.012-3.401-.067-4.588a8.168 8.168 0 00-.517-2.703 5.451 5.451 0 00-1.284-1.971 5.452 5.452 0 00-1.97-1.284A8.17 8.17 0 0016.46.066C15.274.013 14.894 0 11.873 0z" fill="#fff"/><path d="M11.877 5.414a5.715 5.715 0 100 11.43 5.715 5.715 0 000-11.43zm0 9.425a3.71 3.71 0 110-7.42 3.71 3.71 0 010 7.42zM17.814 6.524a1.335 1.335 0 100-2.671 1.335 1.335 0 000 2.67z" fill="#fff"/></svg><svg fill="none" viewBox="0 0 19 16" id="share-twitter" xmlns="http://www.w3.org/2000/svg"><path d="M18.357 2.431a8.383 8.383 0 01-2.18.612c.765-.46 1.377-1.186 1.645-2.065-.727.42-1.53.726-2.41.918A3.812 3.812 0 0012.66.71 3.754 3.754 0 008.91 4.458c0 .306.038.574.115.841A10.715 10.715 0 011.262 1.36C.956 1.934.765 2.546.765 3.234c0 1.3.65 2.448 1.683 3.136a4.425 4.425 0 01-1.721-.459v.038c0 1.836 1.3 3.366 3.02 3.71-.305.077-.65.115-.993.115-.23 0-.498-.038-.727-.077.497 1.492 1.874 2.6 3.518 2.6-1.3.995-2.906 1.607-4.665 1.607-.306 0-.612 0-.88-.038a10.642 10.642 0 005.775 1.683c6.922 0 10.708-5.737 10.708-10.709v-.497a6.869 6.869 0 001.874-1.912z" fill="#fff"/></svg><svg fill="none" viewBox="0 0 46 46" id="team-facebook" xmlns="http://www.w3.org/2000/svg"><circle cx="23" cy="23" r="22.5" fill="#fff" fill-opacity=".05" stroke="url(#bhpaint0_linear_73_2790)"/><path d="M20.883 33.356v-9.124h-3.07v-3.555h3.07v-2.622c0-3.043 1.858-4.7 4.573-4.7 1.3 0 2.418.096 2.744.14v3.18h-1.883c-1.477 0-1.762.702-1.762 1.732v2.27h3.52l-.458 3.555h-3.062v9.124h-3.672z" fill="#fff"/><defs><linearGradient id="bhpaint0_linear_73_2790" x1="0" y1="23" x2="46" y2="23" gradientUnits="userSpaceOnUse"><stop stop-color="#0CBAF1"/><stop offset="1" stop-color="#E95CE9"/></linearGradient></defs></svg><svg fill="none" viewBox="0 0 46 46" id="team-instagram" xmlns="http://www.w3.org/2000/svg"><circle cx="23" cy="23" r="22.5" fill="#fff" fill-opacity=".05" stroke="url(#bipaint0_linear_73_2795)"/><path d="M22.996 13.876c2.972 0 3.324.012 4.497.065a6.173 6.173 0 012.067.383 3.687 3.687 0 012.113 2.113c.245.662.374 1.36.383 2.066.053 1.174.064 1.526.064 4.498 0 2.971-.01 3.323-.064 4.497a6.177 6.177 0 01-.383 2.067 3.685 3.685 0 01-2.113 2.112 6.173 6.173 0 01-2.067.383c-1.173.053-1.525.065-4.497.065s-3.324-.011-4.497-.065a6.174 6.174 0 01-2.067-.383 3.687 3.687 0 01-2.112-2.112 6.174 6.174 0 01-.383-2.067c-.053-1.174-.065-1.526-.065-4.497 0-2.972.011-3.324.065-4.498a6.174 6.174 0 01.383-2.066 3.685 3.685 0 012.112-2.113 6.174 6.174 0 012.067-.383c1.174-.053 1.526-.065 4.497-.065zm0-2.005c-3.02 0-3.401.013-4.588.067a8.168 8.168 0 00-2.703.517 5.451 5.451 0 00-1.97 1.284 5.45 5.45 0 00-1.285 1.971 8.173 8.173 0 00-.517 2.703c-.053 1.186-.066 1.566-.066 4.587 0 3.02.013 3.401.067 4.588.018.924.193 1.838.517 2.703a5.45 5.45 0 001.284 1.971 5.45 5.45 0 001.971 1.284c.865.324 1.78.5 2.703.517 1.187.053 1.566.067 4.588.067 3.023 0 3.401-.013 4.589-.067a8.168 8.168 0 002.702-.517 5.697 5.697 0 003.254-3.256c.324-.865.5-1.779.517-2.703.053-1.186.066-1.566.066-4.587 0-3.02-.013-3.401-.066-4.588a8.171 8.171 0 00-.518-2.703 5.452 5.452 0 00-1.284-1.97 5.453 5.453 0 00-1.97-1.285 8.173 8.173 0 00-2.703-.517c-1.186-.053-1.567-.066-4.588-.066z" fill="#fff"/><path d="M23 17.285a5.715 5.715 0 100 11.43 5.715 5.715 0 000-11.43zm0 9.425a3.71 3.71 0 110-7.42 3.71 3.71 0 010 7.42zM28.937 18.395a1.335 1.335 0 100-2.671 1.335 1.335 0 000 2.67z" fill="#fff"/><defs><linearGradient id="bipaint0_linear_73_2795" x1="0" y1="23" x2="46" y2="23" gradientUnits="userSpaceOnUse"><stop stop-color="#0CBAF1"/><stop offset="1" stop-color="#E95CE9"/></linearGradient></defs></svg><svg fill="none" viewBox="0 0 46 46" id="team-twitter" xmlns="http://www.w3.org/2000/svg"><circle cx="23" cy="23" r="22.5" fill="#fff" fill-opacity=".05" stroke="url(#bjpaint0_linear_73_2785)"/><path d="M33.2 18.043a8.383 8.383 0 01-2.179.612c.765-.459 1.377-1.185 1.645-2.065-.727.42-1.53.727-2.41.918a3.812 3.812 0 00-2.753-1.186 3.754 3.754 0 00-3.748 3.748c0 .306.038.574.114.842a10.715 10.715 0 01-7.763-3.94c-.306.574-.497 1.186-.497 1.874 0 1.3.65 2.448 1.682 3.136a4.426 4.426 0 01-1.72-.459v.039c0 1.835 1.3 3.365 3.02 3.71-.305.076-.65.114-.994.114a4.68 4.68 0 01-.726-.076c.497 1.491 1.874 2.6 3.518 2.6-1.3.995-2.906 1.607-4.666 1.607-.306 0-.612 0-.88-.039a10.641 10.641 0 005.776 1.683c6.922 0 10.708-5.737 10.708-10.708v-.497a6.869 6.869 0 001.874-1.913z" fill="#fff"/><defs><linearGradient id="bjpaint0_linear_73_2785" x1="0" y1="23" x2="46" y2="23" gradientUnits="userSpaceOnUse"><stop stop-color="#0CBAF1"/><stop offset="1" stop-color="#E95CE9"/></linearGradient></defs></svg><svg fill="none" viewBox="0 0 297 123" id="text-bg" xmlns="http://www.w3.org/2000/svg"><path d="M10.847 0H297v123H10.847L0 61.5 10.847 0z" fill="#252532" fill-opacity=".77"/><path d="M.508 61.5L11.267.5H296.5v122H11.267l-10.76-61z" stroke="url(#bkpaint0_linear_38_1547)" stroke-opacity=".3"/><defs><linearGradient id="bkpaint0_linear_38_1547" x1="10.847" y1="-4.444" x2="310.505" y2="55.608" gradientUnits="userSpaceOnUse"><stop stop-color="#fff"/><stop offset="1" stop-color="#fff" stop-opacity="0"/></linearGradient></defs></svg><svg fill="none" viewBox="0 0 46 46" id="tvitter" xmlns="http://www.w3.org/2000/svg"><circle cx="23" cy="23" r="22.5" fill="#18181B" stroke="url(#blpaint0_linear_52_1552)"/><path d="M33.2 18.043a8.383 8.383 0 01-2.179.612c.765-.459 1.377-1.185 1.645-2.065-.727.42-1.53.727-2.41.918a3.812 3.812 0 00-2.753-1.186 3.754 3.754 0 00-3.748 3.748c0 .306.038.574.114.842a10.715 10.715 0 01-7.763-3.94c-.306.574-.497 1.186-.497 1.874 0 1.3.65 2.448 1.682 3.136a4.426 4.426 0 01-1.72-.459v.039c0 1.835 1.3 3.365 3.02 3.71-.305.076-.65.114-.994.114a4.68 4.68 0 01-.726-.076c.497 1.491 1.874 2.6 3.518 2.6-1.3.995-2.906 1.607-4.666 1.607-.306 0-.612 0-.88-.039a10.641 10.641 0 005.776 1.683c6.922 0 10.708-5.737 10.708-10.708v-.497a6.869 6.869 0 001.874-1.913z" fill="#fff"/><defs><linearGradient id="blpaint0_linear_52_1552" x1="0" y1="23" x2="46" y2="23" gradientUnits="userSpaceOnUse"><stop stop-color="#0CBAF1"/><stop offset="1" stop-color="#E95CE9"/></linearGradient></defs></svg></svg>